<svg width="15" height="14" viewBox="0 0 15 14" fill="none" xmlns="http://www.w3.org/2000/svg">
<path d="M3.71758 3.07889H13.0264C13.4908 3.07911 13.9192 3.32902 14.1479 3.73315C14.3767 4.13728 14.3705 4.6332 14.1316 5.03147L11.1779 8.89978C10.945 9.28813 10.5255 9.52586 10.0727 9.52608H4.3623C3.65016 9.52608 3.07286 8.94878 3.07286 8.23664L3.71758 3.07889ZM3.71758 3.07889L3.10098 0.608684C3.0845 0.54442 3.0264 0.499614 2.96006 0.500003H0.5M4.36047 12.4273C4.35945 12.9601 3.92685 13.3913 3.39401 13.3907C2.86116 13.39 2.42966 12.9577 2.43 12.4248C2.43034 11.892 2.86239 11.4602 3.39523 11.4602C3.65147 11.4604 3.89712 11.5625 4.07814 11.7438C4.25916 11.9252 4.36071 12.171 4.36047 12.4273ZM9.50902 12.4273C9.50801 12.9601 9.07541 13.3913 8.54256 13.3907C8.00972 13.39 7.57822 12.9577 7.57855 12.4248C7.57889 11.892 8.01094 11.4602 8.54379 11.4602C8.80003 11.4604 9.04568 11.5625 9.2267 11.7438C9.40771 11.9252 9.50927 12.171 9.50902 12.4273Z" stroke="white" stroke-linecap="round" stroke-linejoin="round"/>
</svg>
