<svg width="48" height="148" viewBox="0 0 48 148" fill="none" xmlns="http://www.w3.org/2000/svg">
<path opacity="0.32" d="M27.2193 134.526C32.7945 134.526 37.8217 135.286 41.4371 136.5C43.2472 137.109 44.6761 137.822 45.6422 138.589C46.6133 139.361 47.0503 140.13 47.0504 140.856C47.0504 141.582 46.6136 142.352 45.6422 143.124C44.6761 143.891 43.2471 144.603 41.4371 145.211C37.8217 146.426 32.7945 147.186 27.2193 147.186C21.6442 147.186 16.6179 146.426 13.0025 145.211C11.1926 144.603 9.76364 143.891 8.79745 143.124C7.82606 142.352 7.38828 141.582 7.38828 140.856C7.38833 140.13 7.82612 139.361 8.79745 138.589C9.76365 137.822 11.1923 137.109 13.0025 136.5C16.6179 135.286 21.6443 134.526 27.2193 134.526Z" fill="black" stroke="white"/>
<path d="M16.2645 63.6616C17.5923 63.2189 19.1586 63.5742 20.9363 64.2017C22.6516 64.8071 24.5775 65.6763 26.3826 66.02C27.3364 66.2016 28.3915 66.1415 29.4002 66.0454C30.4361 65.9467 31.4109 65.8119 32.3113 65.8052C33.2087 65.7986 33.9259 65.9242 34.449 66.2739C34.9475 66.6073 35.3515 67.2014 35.5027 68.3276C35.8253 70.7304 35.7024 72.3273 35.3875 73.6812C35.063 75.0761 34.5531 76.1774 34.0301 77.7466C33.5086 79.3105 33.1695 81.661 32.9187 84.1685C32.6669 86.6865 32.4995 89.4163 32.3328 91.7505C32.1622 94.1388 32.418 97.4845 32.7098 100.922C33.0034 104.383 33.3347 107.952 33.3348 110.852C33.3348 116.658 31.1713 130.314 30.9988 131.52C30.9091 132.148 30.91 132.856 30.91 133.598C30.91 134.164 30.9102 134.764 30.8758 135.406L30.8279 136.062C30.7453 136.972 30.6646 137.448 30.6092 137.688L30.5584 137.869C30.5163 137.943 30.492 138.027 30.492 138.114V138.131C30.4918 138.144 30.4916 138.165 30.491 138.191C30.4898 138.243 30.4871 138.32 30.4822 138.415C30.4723 138.606 30.4522 138.868 30.4129 139.154C30.3734 139.441 30.3158 139.742 30.2322 140.013C30.147 140.29 30.0441 140.505 29.9324 140.645C29.6895 140.948 29.3003 141.161 28.7478 141.338C28.1814 141.52 27.5684 141.632 26.8562 141.81C26.4375 141.915 26.0142 142.153 25.6141 142.412C25.2151 142.67 24.7717 142.995 24.3523 143.285C23.4701 143.894 22.6078 144.402 21.7518 144.473C21.238 144.516 20.6597 144.591 20.0818 144.661C19.4975 144.731 18.9051 144.797 18.3377 144.828C17.7689 144.858 17.2422 144.851 16.7879 144.783C16.3307 144.714 15.9817 144.586 15.7381 144.404C15.6772 144.358 15.6403 144.322 15.6189 144.296L15.5906 144.252C15.5908 144.251 15.591 144.249 15.5916 144.247C15.5927 144.241 15.595 144.233 15.5994 144.222C15.6193 144.172 15.6702 144.09 15.7801 143.972C15.8875 143.857 16.0317 143.729 16.2117 143.583C16.5877 143.281 17.018 142.982 17.5291 142.59C18.0183 142.215 18.5371 141.786 18.9852 141.293C19.8512 140.341 20.3781 139.511 20.6902 138.909C20.8462 138.608 20.9482 138.364 21.0125 138.192C21.0446 138.106 21.0677 138.037 21.0828 137.988C21.0903 137.963 21.0963 137.944 21.1004 137.929C21.1024 137.922 21.104 137.916 21.1053 137.912C21.1059 137.909 21.1058 137.907 21.1062 137.905L21.1072 137.903V137.901C21.1469 137.742 21.1066 137.574 20.9988 137.451C20.8911 137.327 20.7299 137.265 20.5672 137.283H20.5633C20.5605 137.283 20.556 137.284 20.5506 137.285C20.5397 137.286 20.5234 137.287 20.5027 137.29C20.4609 137.294 20.3999 137.3 20.325 137.308C20.1749 137.324 19.9682 137.345 19.741 137.366C19.2786 137.408 18.7565 137.447 18.448 137.447C18.2709 137.447 18.0885 137.503 17.9422 137.557C17.7837 137.616 17.6083 137.697 17.4275 137.786C17.0706 137.961 16.6336 138.202 16.2088 138.424C15.7729 138.653 15.332 138.872 14.9236 139.035C14.5052 139.201 14.1695 139.287 13.9324 139.287C13.2795 139.287 12.2507 139.246 11.2439 139.143C10.3413 139.051 9.51137 138.913 8.97929 138.734C9.14826 138.576 9.43466 138.368 9.84062 138.125C10.8533 137.517 12.3729 136.817 13.7879 136.235C15.2527 135.632 16.2547 134.981 16.8973 134.471C17.2181 134.217 17.4489 133.998 17.6023 133.838C17.679 133.759 17.7365 133.694 17.7762 133.647C17.796 133.624 17.8119 133.604 17.823 133.59C17.8285 133.584 17.8333 133.578 17.8367 133.574C17.8384 133.572 17.8394 133.569 17.8406 133.568L17.8436 133.565V133.564C17.9231 133.458 17.958 133.324 17.9393 133.193L17.9383 133.192C17.9382 133.191 17.9384 133.19 17.9383 133.189C17.9379 133.187 17.9379 133.183 17.9373 133.179C17.936 133.17 17.9339 133.156 17.9314 133.139C17.9265 133.105 17.9192 133.056 17.91 132.996C17.8914 132.874 17.8646 132.703 17.8328 132.512C17.7856 132.229 17.7247 131.89 17.66 131.588L17.5945 131.302C17.5781 131.236 17.5743 131.089 17.6111 130.853C17.6458 130.631 17.7081 130.382 17.7781 130.142C17.8476 129.904 17.9225 129.684 17.9803 129.523C18.009 129.443 18.0327 129.378 18.0496 129.333C18.058 129.312 18.0648 129.295 18.0691 129.284C18.0713 129.278 18.073 129.274 18.074 129.271C18.0745 129.27 18.0748 129.269 18.075 129.268H18.076C18.1258 129.143 18.1233 129.003 18.0691 128.88L18.0682 128.879L18.0672 128.877C18.0661 128.875 18.0644 128.871 18.0623 128.867C18.0581 128.857 18.052 128.842 18.0437 128.824C18.0273 128.786 18.0033 128.731 17.9715 128.659C17.9075 128.513 17.8131 128.3 17.6932 128.027C17.4531 127.481 17.1089 126.697 16.6922 125.746C15.8587 123.844 14.7349 121.273 13.575 118.598C11.2497 113.235 8.79344 107.488 8.21562 105.837C7.07586 102.581 6.40696 97.1388 7.07109 90.3296C7.40141 86.943 8.64638 81.4158 9.81816 76.7075C10.4025 74.3598 10.9661 72.2256 11.3836 70.6782C11.5923 69.9046 11.7646 69.2774 11.8846 68.8442C11.9445 68.6278 11.9914 68.4591 12.0232 68.3452C12.0391 68.2886 12.0512 68.2453 12.0594 68.2163C12.0617 68.208 12.0636 68.2008 12.0652 68.1948C12.0666 68.1915 12.0685 68.188 12.0701 68.1841C12.0806 68.1588 12.0969 68.1199 12.1189 68.0698C12.163 67.9695 12.2303 67.8228 12.3201 67.6431C12.5004 67.2826 12.771 66.7914 13.1307 66.272C13.859 65.2202 14.9103 64.1127 16.2645 63.6616ZM30.5828 137.828C30.5864 137.822 30.5899 137.816 30.5945 137.81C30.6 137.803 30.6069 137.795 30.6141 137.787C30.6176 137.783 30.6218 137.778 30.6258 137.774C30.6277 137.772 30.6296 137.769 30.6316 137.767C30.6326 137.766 30.6336 137.765 30.6346 137.764L30.5828 137.828Z" fill="black" stroke="white" stroke-miterlimit="10" stroke-linecap="round" stroke-linejoin="round"/>
<mask id="path-3-inside-1_2_3759" fill="white">
<path d="M17.6986 85.0845C18.2607 91.7956 19.1838 100.985 20.2871 104.998C22.1267 111.688 23.4648 125.236 23.2974 128.079C23.13 130.922 22.4611 132.762 22.4611 132.762C22.4611 132.762 21.9593 133.598 21.9593 134.1C21.9593 134.602 21.7918 136.776 21.7918 136.776C21.7918 136.776 25.3039 139.117 28.9835 138.281"/>
</mask>
<path d="M18.6951 85.001C18.649 84.4507 18.1655 84.0419 17.6151 84.088C17.0647 84.1341 16.656 84.6176 16.7021 85.1679L17.6986 85.0845L18.6951 85.001ZM20.2871 104.998L19.3229 105.264L19.3229 105.264L20.2871 104.998ZM22.4611 132.762L23.3186 133.276C23.3515 133.222 23.3791 133.164 23.4009 133.104L22.4611 132.762ZM21.7918 136.776L20.7948 136.699C20.767 137.06 20.9362 137.407 21.2371 137.608L21.7918 136.776ZM29.2051 139.256C29.7437 139.134 30.081 138.598 29.9586 138.059C29.8362 137.521 29.3004 137.183 28.7619 137.306L28.9835 138.281L29.2051 139.256ZM17.6986 85.0845L16.7021 85.1679C17.2612 91.8435 18.1894 101.14 19.3229 105.264L20.2871 104.998L21.2514 104.733C20.1782 100.83 19.2601 91.7476 18.6951 85.001L17.6986 85.0845ZM20.2871 104.998L19.3229 105.264C20.2219 108.533 21.0095 113.53 21.5519 118.099C22.0971 122.692 22.3768 126.702 22.2991 128.02L23.2974 128.079L24.2957 128.138C24.3855 126.613 24.0798 122.428 23.5379 117.863C22.9932 113.275 22.192 108.154 21.2513 104.733L20.2871 104.998ZM23.2974 128.079L22.2991 128.02C22.2192 129.377 22.0197 130.492 21.8421 131.262C21.7533 131.646 21.6702 131.944 21.6107 132.142C21.581 132.24 21.5572 132.314 21.5415 132.361C21.5337 132.385 21.5279 132.401 21.5244 132.411C21.5227 132.416 21.5215 132.42 21.521 132.421C21.5208 132.422 21.5206 132.422 21.5207 132.422C21.5207 132.422 21.5208 132.422 21.5209 132.421C21.5209 132.421 21.521 132.421 21.5211 132.421C21.5211 132.421 21.5212 132.421 21.5212 132.421C21.5212 132.42 21.5213 132.42 22.4611 132.762C23.4009 133.104 23.401 133.103 23.4011 133.103C23.4011 133.103 23.4012 133.103 23.4012 133.103C23.4013 133.102 23.4015 133.102 23.4016 133.102C23.4019 133.101 23.4022 133.1 23.4025 133.099C23.4032 133.097 23.4041 133.095 23.4051 133.092C23.4071 133.086 23.4097 133.079 23.4129 133.07C23.4193 133.051 23.4281 133.026 23.4389 132.993C23.4605 132.929 23.4902 132.837 23.5258 132.718C23.5969 132.482 23.6915 132.142 23.7909 131.712C23.9895 130.851 24.2082 129.624 24.2957 128.138L23.2974 128.079ZM22.4611 132.762C21.6037 132.247 21.6036 132.247 21.6035 132.248C21.6035 132.248 21.6034 132.248 21.6034 132.248C21.6033 132.248 21.6032 132.248 21.603 132.248C21.6028 132.249 21.6025 132.249 21.6022 132.25C21.6016 132.251 21.6009 132.252 21.6001 132.253C21.5984 132.256 21.5962 132.26 21.5936 132.264C21.5884 132.273 21.5814 132.285 21.5728 132.3C21.5558 132.33 21.5324 132.371 21.5048 132.421C21.4502 132.522 21.3767 132.662 21.3023 132.824C21.1778 133.093 20.9593 133.607 20.9593 134.1H21.9593H22.9593C22.9593 134.122 22.9575 134.087 22.9913 133.98C23.0214 133.885 23.0662 133.774 23.1181 133.662C23.1691 133.551 23.2211 133.452 23.2606 133.379C23.2801 133.344 23.2959 133.316 23.3063 133.298C23.3115 133.289 23.3152 133.282 23.3174 133.278C23.3184 133.277 23.3191 133.276 23.3193 133.275C23.3194 133.275 23.3194 133.275 23.3193 133.275C23.3192 133.275 23.3191 133.276 23.319 133.276C23.319 133.276 23.3189 133.276 23.3188 133.276C23.3188 133.276 23.3187 133.276 23.3187 133.276C23.3186 133.276 23.3186 133.276 22.4611 132.762ZM21.9593 134.1H20.9593C20.9593 134.308 20.921 134.934 20.8779 135.557C20.8571 135.858 20.8363 136.144 20.8207 136.354C20.8129 136.46 20.8064 136.546 20.8019 136.606C20.7996 136.636 20.7978 136.659 20.7966 136.675C20.796 136.683 20.7955 136.689 20.7952 136.693C20.7951 136.695 20.795 136.697 20.7949 136.698C20.7949 136.698 20.7948 136.699 20.7948 136.699C20.7948 136.699 20.7948 136.699 20.7948 136.699C20.7948 136.699 20.7948 136.699 20.7948 136.699C20.7948 136.699 20.7948 136.699 21.7918 136.776C22.7889 136.853 22.7889 136.853 22.7889 136.853C22.7889 136.853 22.7889 136.853 22.7889 136.853C22.7889 136.852 22.7889 136.852 22.7889 136.852C22.7889 136.852 22.789 136.851 22.789 136.851C22.7891 136.85 22.7892 136.848 22.7894 136.846C22.7897 136.842 22.7902 136.836 22.7908 136.828C22.792 136.811 22.7939 136.787 22.7962 136.757C22.8008 136.696 22.8074 136.609 22.8153 136.502C22.831 136.29 22.8521 136 22.8732 135.695C22.9138 135.106 22.9593 134.394 22.9593 134.1H21.9593ZM21.7918 136.776C21.2371 137.608 21.2374 137.608 21.2377 137.608C21.2378 137.608 21.2381 137.609 21.2383 137.609C21.2388 137.609 21.2393 137.609 21.2399 137.61C21.241 137.611 21.2424 137.611 21.244 137.612C21.2471 137.615 21.2511 137.617 21.256 137.62C21.2657 137.627 21.2788 137.635 21.2952 137.646C21.328 137.666 21.3741 137.695 21.4326 137.731C21.5496 137.801 21.7167 137.898 21.9272 138.011C22.3473 138.235 22.946 138.523 23.6696 138.783C25.1022 139.298 27.1075 139.733 29.2051 139.256L28.9835 138.281L28.7619 137.306C27.18 137.665 25.5894 137.348 24.346 136.901C23.7317 136.68 23.2224 136.435 22.869 136.246C22.6928 136.152 22.5567 136.073 22.4672 136.019C22.4225 135.992 22.3895 135.971 22.3691 135.958C22.3589 135.952 22.3519 135.947 22.3481 135.945C22.3462 135.944 22.3451 135.943 22.3448 135.943C22.3447 135.943 22.3448 135.943 22.3451 135.943C22.3452 135.943 22.3454 135.943 22.3456 135.943C22.3458 135.943 22.346 135.943 22.346 135.943C22.3463 135.944 22.3465 135.944 21.7918 136.776Z" fill="white" mask="url(#path-3-inside-1_2_3759)"/>
<mask id="path-5-inside-2_2_3759" fill="white">
<path d="M14.7684 74.5596L17.1098 77.2354C17.1098 77.2354 17.2737 79.816 17.5656 83.4584"/>
</mask>
<path d="M15.521 73.9011C15.1573 73.4854 14.5256 73.4433 14.1099 73.807C13.6943 74.1707 13.6522 74.8025 14.0159 75.2181L14.7684 74.5596L15.521 73.9011ZM17.1098 77.2354L18.1078 77.172C18.0939 76.952 18.0076 76.7428 17.8624 76.5769L17.1098 77.2354ZM16.5688 83.5382C16.6129 84.0888 17.095 84.4993 17.6455 84.4552C18.196 84.411 18.6066 83.929 18.5624 83.3785L17.5656 83.4584L16.5688 83.5382ZM14.7684 74.5596L14.0159 75.2181L16.3573 77.8939L17.1098 77.2354L17.8624 76.5769L15.521 73.9011L14.7684 74.5596ZM17.1098 77.2354C16.1119 77.2988 16.1119 77.2988 16.1119 77.2988C16.1119 77.2989 16.1119 77.2989 16.1119 77.2989C16.1119 77.299 16.1119 77.2992 16.1119 77.2993C16.1119 77.2997 16.1119 77.3002 16.112 77.3008C16.1121 77.3022 16.1122 77.3041 16.1124 77.3067C16.1127 77.3118 16.1132 77.3194 16.1138 77.3294C16.1151 77.3494 16.117 77.3792 16.1196 77.4183C16.1247 77.4965 16.1322 77.6121 16.1422 77.7621C16.1622 78.062 16.1919 78.4997 16.2307 79.0512C16.3084 80.1543 16.4226 81.7133 16.5688 83.5382L17.5656 83.4584L18.5624 83.3785C18.4168 81.5611 18.3031 80.0086 18.2258 78.9108C18.1872 78.3619 18.1576 77.9267 18.1378 77.629C18.1279 77.4802 18.1204 77.3657 18.1153 77.2885C18.1128 77.2499 18.111 77.2207 18.1097 77.2012C18.1091 77.1914 18.1086 77.184 18.1083 77.1792C18.1081 77.1767 18.108 77.1749 18.1079 77.1737C18.1079 77.1731 18.1079 77.1727 18.1079 77.1724C18.1078 77.1723 18.1078 77.1722 18.1078 77.1721C18.1078 77.1721 18.1078 77.172 18.1078 77.172C18.1078 77.172 18.1078 77.172 17.1098 77.2354Z" fill="white" mask="url(#path-5-inside-2_2_3759)"/>
<path d="M14.3616 24.3604C14.3812 24.3549 14.453 24.3489 14.6008 24.4326C14.7412 24.5121 14.8822 24.6358 14.9964 24.752C15.0082 24.764 15.0187 24.7767 15.0296 24.7881C15.0091 24.9153 14.9815 25.0919 14.9495 25.3154C14.878 25.8138 14.7835 26.5463 14.6887 27.4863C14.4991 29.3668 14.3098 32.081 14.3098 35.4238V47.1592C14.2874 47.1859 14.2624 47.217 14.2337 47.251C14.1096 47.3974 13.9277 47.608 13.6995 47.8643C13.2426 48.3772 12.6002 49.0698 11.8587 49.7881C11.1162 50.5073 10.2808 51.2463 9.43678 51.8564C8.58637 52.4712 7.75741 52.9325 7.0276 53.1289C5.48372 53.5445 4.54081 53.2943 3.98463 52.6201C3.37988 51.8867 3.07964 50.4937 3.26588 48.2598C3.35288 47.2163 3.77989 45.922 4.42116 44.498C5.05881 43.0821 5.89102 41.5753 6.7571 40.1162C7.62302 38.6574 8.51597 37.2576 9.27663 36.0488C10.0293 34.8528 10.6673 33.8209 10.9964 33.1299C11.6364 31.7858 12.4261 29.6584 13.0501 27.8848C13.3633 26.9944 13.6367 26.1866 13.8323 25.6016C13.9301 25.309 14.0089 25.0712 14.0628 24.9072C14.0896 24.8256 14.1102 24.762 14.1243 24.7188C14.13 24.7012 14.1335 24.6865 14.137 24.6758C14.2575 24.3839 14.3604 24.3607 14.3616 24.3604Z" fill="black" stroke="white" stroke-miterlimit="10" stroke-linecap="round" stroke-linejoin="round"/>
<path d="M27.9891 18.5962C28.7982 18.5551 29.4995 18.5904 29.995 18.728C30.5093 18.8709 31.4771 19.3149 32.6903 19.9624C33.8884 20.6019 35.285 21.4175 36.6395 22.2729C37.9951 23.1291 39.3009 24.0201 40.3182 24.812C40.8272 25.2082 41.2568 25.5744 41.5829 25.894C41.9195 26.2241 42.1079 26.4691 42.1796 26.6226C42.3338 26.9532 42.3607 27.5502 42.2206 28.5571C42.0842 29.5369 41.8104 30.7868 41.4735 32.3511C40.8026 35.4659 39.9042 39.7344 39.455 45.2544C39.0105 50.7131 38.0257 56.4335 37.1503 60.7944C36.7129 62.9734 36.3029 64.8102 36.0028 66.1021C35.8528 66.7479 35.7304 67.2583 35.6454 67.606C35.6422 67.6189 35.6387 67.6315 35.6356 67.644C35.4611 67.6189 35.2449 67.6021 34.9774 67.6021C34.1184 67.6021 32.6987 67.7729 30.3778 68.4175C27.9905 69.0805 25.8565 70.4641 24.3329 71.6636C23.5679 72.2658 22.9494 72.8279 22.5214 73.2397C22.3872 73.3688 22.2733 73.485 22.1776 73.5815C22.0144 73.4466 21.8017 73.2687 21.5614 73.0552C20.997 72.5536 20.2836 71.8695 19.6678 71.1304C19.4033 70.813 19.116 70.247 18.8319 69.5249C18.553 68.816 18.2951 68.0034 18.0741 67.23C17.8535 66.4579 17.6712 65.732 17.5448 65.1987C17.4817 64.9325 17.4327 64.7148 17.3993 64.564C17.3826 64.4886 17.3697 64.4297 17.3612 64.3901C17.3569 64.3703 17.3536 64.3552 17.3514 64.3452C17.3504 64.3405 17.35 64.3369 17.3495 64.3345C17.3492 64.3333 17.3486 64.3321 17.3485 64.3315V64.3306C17.3022 64.1097 17.1138 63.9473 16.8885 63.9341C16.663 63.9211 16.4561 64.0606 16.3846 64.2749C16.3844 64.2755 16.3843 64.2771 16.3837 64.2788C16.3823 64.2827 16.3799 64.2897 16.3768 64.2983C16.3707 64.3157 16.3615 64.3425 16.3485 64.3774C16.3224 64.4479 16.2825 64.5522 16.2284 64.6821C16.1201 64.9424 15.9562 65.3046 15.7352 65.7085C15.3164 66.474 14.7107 67.3556 13.9178 67.9897L13.7567 68.1128C12.8297 68.7928 11.9317 69.2884 11.2655 69.6138C11.207 69.6423 11.1493 69.6679 11.0946 69.6938C11.1327 69.5468 11.1752 69.3859 11.2196 69.2124C11.4514 68.3073 11.763 67.0638 12.0829 65.7124C12.7188 63.0256 13.3991 59.8595 13.5302 58.0903C13.7881 54.6073 13.6593 49.0839 12.8885 43.9448C12.5129 41.4401 12.4154 37.2032 12.6219 33.2798C12.725 31.3214 12.903 29.4554 13.1561 27.9351C13.2827 27.1747 13.4267 26.5085 13.5868 25.9644C13.7492 25.4125 13.9196 25.0194 14.0829 24.7808C14.4438 24.2532 15.1383 23.6497 16.0311 23.0288C16.9122 22.4161 17.9419 21.816 18.9296 21.2866C19.916 20.7579 20.8527 20.3033 21.5428 19.981C21.8877 19.8199 22.1708 19.6924 22.3671 19.605C22.465 19.5613 22.541 19.5269 22.5927 19.5044C22.6079 19.4977 22.6209 19.4915 22.6317 19.4868C22.6391 19.4849 22.6482 19.4835 22.6581 19.481C22.6967 19.4711 22.7541 19.4562 22.828 19.438C22.9763 19.4015 23.1914 19.3496 23.4569 19.2896C23.9888 19.1694 24.7209 19.0159 25.5223 18.8823C26.3251 18.7485 27.1898 18.6368 27.9891 18.5962Z" fill="black" stroke="white" stroke-miterlimit="10" stroke-linecap="round" stroke-linejoin="round"/>
<path d="M18.2632 41.4673L16.9946 62.5307" stroke="white" stroke-miterlimit="10" stroke-linecap="round" stroke-linejoin="round"/>
<mask id="path-10-inside-3_2_3759" fill="white">
<path d="M12.2629 69.992C12.2629 69.992 16.7252 67.0637 16.8598 64.4326C16.8598 64.4326 17.0689 70.6963 22.2186 74.2572C22.2186 74.2572 24.6384 72.1758 25.9127 71.0839"/>
</mask>
<path d="M11.7143 69.156C11.2525 69.459 11.1238 70.0789 11.4269 70.5407C11.7299 71.0024 12.3498 71.1311 12.8116 70.8281L12.2629 69.992L11.7143 69.156ZM16.8598 64.4326L17.8593 64.3993C17.8414 63.8637 17.4045 63.4374 16.8687 63.4327C16.3329 63.4279 15.8885 63.8463 15.8611 64.3815L16.8598 64.4326ZM22.2186 74.2572L21.6498 75.0797C22.024 75.3384 22.5258 75.312 22.8707 75.0153L22.2186 74.2572ZM26.5634 71.8433C26.9828 71.4839 27.0315 70.8527 26.6721 70.4333C26.3128 70.0139 25.6815 69.9652 25.2621 70.3245L25.9127 71.0839L26.5634 71.8433ZM12.2629 69.992C12.8116 70.8281 12.8117 70.828 12.8119 70.8278C12.812 70.8278 12.8122 70.8276 12.8124 70.8275C12.8128 70.8273 12.8132 70.827 12.8137 70.8267C12.8147 70.826 12.8159 70.8252 12.8174 70.8242C12.8205 70.8222 12.8246 70.8195 12.8297 70.8161C12.84 70.8092 12.8544 70.7996 12.8727 70.7873C12.9092 70.7626 12.9612 70.7271 13.0266 70.6815C13.1573 70.5904 13.3418 70.4588 13.5626 70.2931C14.0026 69.9627 14.5945 69.491 15.1946 68.9287C15.7911 68.3699 16.4185 67.7006 16.9123 66.9727C17.3982 66.2564 17.8116 65.4007 17.8585 64.4837L16.8598 64.4326L15.8611 64.3815C15.8407 64.7801 15.6458 65.2771 15.2572 65.8498C14.8765 66.411 14.3631 66.9671 13.8271 67.4692C13.2948 67.968 12.7627 68.3927 12.3619 68.6937C12.1622 68.8435 11.997 68.9613 11.8832 69.0406C11.8263 69.0803 11.7823 69.1102 11.7535 69.1297C11.739 69.1395 11.7284 69.1466 11.7217 69.151C11.7184 69.1532 11.7161 69.1548 11.7149 69.1556C11.7142 69.156 11.7139 69.1562 11.7138 69.1563C11.7137 69.1563 11.7137 69.1563 11.7138 69.1563C11.7138 69.1563 11.714 69.1562 11.714 69.1562C11.7141 69.1561 11.7143 69.156 12.2629 69.992ZM16.8598 64.4326C15.8604 64.466 15.8604 64.4664 15.8604 64.4668C15.8604 64.467 15.8604 64.4675 15.8604 64.4678C15.8605 64.4685 15.8605 64.4694 15.8605 64.4703C15.8606 64.4721 15.8607 64.4743 15.8608 64.4769C15.861 64.482 15.8613 64.4887 15.8616 64.4969C15.8624 64.5132 15.8635 64.5354 15.8652 64.5634C15.8685 64.6192 15.874 64.6978 15.8827 64.7969C15.9003 64.9949 15.9311 65.2755 15.9848 65.6208C16.0921 66.3101 16.2918 67.264 16.663 68.3366C17.404 70.4775 18.847 73.1416 21.6498 75.0797L22.2186 74.2572L22.7873 73.4346C20.4405 71.8119 19.2041 69.5637 18.5531 67.6825C18.2283 66.7442 18.0539 65.9096 17.961 65.3132C17.9147 65.0155 17.889 64.779 17.875 64.6206C17.868 64.5414 17.8639 64.4819 17.8616 64.4443C17.8605 64.4255 17.8599 64.4121 17.8595 64.4045C17.8593 64.4007 17.8592 64.3984 17.8592 64.3975C17.8592 64.397 17.8592 64.397 17.8592 64.3973C17.8592 64.3974 17.8592 64.3976 17.8592 64.398C17.8592 64.3981 17.8592 64.3985 17.8592 64.3985C17.8592 64.3989 17.8593 64.3993 16.8598 64.4326ZM22.2186 74.2572C22.8707 75.0153 22.8707 75.0153 22.8707 75.0153C22.8707 75.0153 22.8707 75.0152 22.8708 75.0152C22.8709 75.0151 22.871 75.015 22.8711 75.0149C22.8714 75.0147 22.8718 75.0143 22.8724 75.0138C22.8736 75.0128 22.8753 75.0113 22.8776 75.0093C22.8823 75.0053 22.8891 74.9994 22.8981 74.9917C22.9162 74.9762 22.9428 74.9533 22.9771 74.9238C23.0457 74.8647 23.1452 74.7792 23.2686 74.6731C23.5153 74.461 23.8575 74.1667 24.2396 73.8384C25.0038 73.1815 25.9268 72.3887 26.5634 71.8433L25.9127 71.0839L25.2621 70.3245C24.6243 70.871 23.7002 71.6648 22.936 72.3216C22.5538 72.6501 22.2114 72.9444 21.9646 73.1567C21.8412 73.2628 21.7417 73.3484 21.673 73.4074C21.6386 73.437 21.612 73.4599 21.594 73.4754C21.585 73.4831 21.5781 73.489 21.5735 73.493C21.5711 73.495 21.5694 73.4965 21.5682 73.4975C21.5676 73.498 21.5672 73.4984 21.5669 73.4987C21.5668 73.4988 21.5667 73.4989 21.5666 73.4989C21.5665 73.499 21.5665 73.499 21.5665 73.499C21.5665 73.499 21.5665 73.499 22.2186 74.2572Z" fill="white" mask="url(#path-10-inside-3_2_3759)"/>
<path d="M12.6399 42.1069C12.6262 41.9662 12.611 41.8243 12.5979 41.6812C12.4498 40.0622 12.3449 38.3079 12.3606 36.6782C12.3665 36.0719 12.3886 35.4874 12.431 34.937C12.2592 37.166 12.4124 39.7707 12.6399 42.1069Z" stroke="white" stroke-miterlimit="10" stroke-linecap="round" stroke-linejoin="round"/>
<path d="M27.9898 18.5952C28.7988 18.5542 29.5001 18.5904 29.9957 18.728C30.4556 18.856 31.2789 19.2273 32.317 19.7681L31.3609 25.186L29.1861 25.4038L28.3365 25.4888L28.8258 26.188L30.3873 28.4185L18.2594 42.313L16.8727 28.7925L18.3307 27.5591L19.1217 26.8901L18.106 26.687L17.4 26.5454L19.3521 21.146L19.4303 21.022C20.2921 20.5732 21.0869 20.192 21.6744 19.9194C21.9812 19.7771 22.2311 19.6642 22.4039 19.5874C22.4903 19.549 22.5578 19.5202 22.6031 19.5005C22.6162 19.4948 22.627 19.4889 22.6363 19.4849C22.6426 19.4833 22.6499 19.482 22.6578 19.48C22.6964 19.4702 22.7537 19.4562 22.8277 19.438C22.9761 19.4015 23.1919 19.3496 23.4576 19.2896C23.9894 19.1694 24.7209 19.0158 25.5221 18.8823C26.3249 18.7485 27.1904 18.6358 27.9898 18.5952Z" fill="black" stroke="white"/>
<mask id="mask0_2_3759" style="mask-type:luminance" maskUnits="userSpaceOnUse" x="16" y="18" width="17" height="26">
<path d="M27.9898 18.5952C28.7988 18.5542 29.5001 18.5904 29.9957 18.728C30.4556 18.856 31.2789 19.2273 32.317 19.7681L31.3609 25.186L29.1861 25.4038L28.3365 25.4888L28.8258 26.188L30.3873 28.4185L18.2594 42.313L16.8727 28.7925L18.3307 27.5591L19.1217 26.8901L18.106 26.687L17.4 26.5454L19.3521 21.146L19.4303 21.022C20.2921 20.5732 21.0869 20.192 21.6744 19.9194C21.9812 19.7771 22.2311 19.6642 22.4039 19.5874C22.4903 19.549 22.5578 19.5202 22.6031 19.5005C22.6162 19.4948 22.627 19.4889 22.6363 19.4849C22.6426 19.4833 22.6499 19.482 22.6578 19.48C22.6964 19.4702 22.7537 19.4562 22.8277 19.438C22.9761 19.4015 23.1919 19.3496 23.4576 19.2896C23.9894 19.1694 24.7209 19.0158 25.5221 18.8823C26.3249 18.7485 27.1904 18.6358 27.9898 18.5952Z" fill="white" stroke="white"/>
</mask>
<g mask="url(#mask0_2_3759)">
<path opacity="0.21" d="M27.9898 18.5952C28.7988 18.5542 29.5001 18.5904 29.9957 18.728C30.4556 18.856 31.2789 19.2273 32.317 19.7681L31.3609 25.186L29.1861 25.4038C29.0095 25.4215 28.8559 25.5316 28.7818 25.6929C28.7078 25.8541 28.7241 26.0426 28.8258 26.188L30.3873 28.4185L18.2594 42.313L16.8727 28.7925L18.3307 27.5591C18.4771 27.4352 18.5397 27.238 18.4918 27.0522C18.4439 26.8665 18.2942 26.7246 18.106 26.687L17.4 26.5454L19.3521 21.146L19.4303 21.022C20.2921 20.5732 21.0869 20.192 21.6744 19.9194C21.9812 19.7771 22.2311 19.6642 22.4039 19.5874C22.4903 19.549 22.5578 19.5202 22.6031 19.5005C22.6162 19.4948 22.627 19.4889 22.6363 19.4849C22.6426 19.4833 22.6499 19.482 22.6578 19.48C22.6964 19.4702 22.7537 19.4562 22.8277 19.438C22.9761 19.4015 23.1919 19.3496 23.4576 19.2896C23.9894 19.1694 24.7209 19.0158 25.5221 18.8823C26.3249 18.7485 27.1904 18.6358 27.9898 18.5952Z" fill="white" stroke="white" stroke-miterlimit="10" stroke-linecap="round" stroke-linejoin="round"/>
</g>
<path d="M27.9898 18.5952C28.7988 18.5542 29.5001 18.5904 29.9957 18.728C30.4556 18.856 31.2789 19.2273 32.317 19.7681L31.3609 25.186L29.1861 25.4038C29.0095 25.4215 28.8559 25.5316 28.7818 25.6929C28.7078 25.8541 28.7241 26.0426 28.8258 26.188L30.3873 28.4185L18.2594 42.313L16.8727 28.7925L18.3307 27.5591C18.4771 27.4352 18.5397 27.238 18.4918 27.0522C18.4439 26.8665 18.2942 26.7246 18.106 26.687L17.4 26.5454L19.3521 21.146L19.4303 21.022C20.2921 20.5732 21.0869 20.192 21.6744 19.9194C21.9812 19.7771 22.2311 19.6642 22.4039 19.5874C22.4903 19.549 22.5578 19.5202 22.6031 19.5005C22.6162 19.4948 22.627 19.4889 22.6363 19.4849C22.6426 19.4833 22.6499 19.482 22.6578 19.48C22.6964 19.4702 22.7537 19.4562 22.8277 19.438C22.9761 19.4015 23.1919 19.3496 23.4576 19.2896C23.9894 19.1694 24.7209 19.0158 25.5221 18.8823C26.3249 18.7485 27.1904 18.6358 27.9898 18.5952Z" stroke="white" stroke-miterlimit="10" stroke-linecap="round" stroke-linejoin="round"/>
<path d="M27.7049 17.2153C28.3602 17.2153 29.1403 17.6349 29.8152 18.1372C30.1395 18.3785 30.4164 18.6208 30.6121 18.8032C30.633 18.8227 30.6517 18.8429 30.6707 18.8608C30.6647 18.873 30.6594 18.886 30.6531 18.8989C30.535 19.1392 30.3531 19.5031 30.0994 19.9946C29.592 20.9779 28.7977 22.4719 27.6521 24.5083C26.507 26.5439 24.0544 30.7176 21.8846 34.3872C20.8003 36.2208 19.7872 37.9266 19.0457 39.1743C18.9938 39.2616 18.9425 39.3465 18.8933 39.4292C18.8972 39.3648 18.9021 39.2994 18.906 39.2329C18.9859 37.8915 19.0823 36.1328 19.1463 34.4692C19.2084 32.8533 19.7109 29.7965 20.2068 27.1089C20.4534 25.7726 20.6957 24.5385 20.8767 23.6392C20.9672 23.1899 21.0421 22.8241 21.0945 22.5708C21.1207 22.4442 21.1421 22.3456 21.156 22.2788C21.1591 22.264 21.1614 22.2504 21.1638 22.2388C21.6989 21.1492 22.9427 19.8915 24.3025 18.8872C24.9844 18.3836 25.6759 17.9585 26.2888 17.6616C26.9185 17.3566 27.4077 17.2154 27.7049 17.2153Z" fill="white" stroke="white" stroke-miterlimit="10" stroke-linecap="round" stroke-linejoin="round"/>
<path d="M26.5855 14.2646L28.4175 19.1875L23.1675 26.3779L20.4859 21.5742L20.4654 21.54L20.4644 21.5381C20.4621 21.5345 20.4573 21.5285 20.4517 21.5195C20.4405 21.5014 20.4238 21.4722 20.4019 21.4336C20.3578 21.356 20.2948 21.2399 20.2271 21.0908C20.091 20.7913 19.9359 20.3682 19.857 19.873C19.7017 18.899 19.8354 17.6349 21.0406 16.4297C22.2905 15.1798 23.7525 14.6403 24.9136 14.4141C25.4935 14.3011 25.9941 14.2673 26.3472 14.2617C26.4367 14.2603 26.5164 14.2633 26.5855 14.2646Z" fill="white" stroke="white" stroke-miterlimit="10" stroke-linecap="round" stroke-linejoin="round"/>
<path d="M25.6158 15.707L25.6177 15.708C25.6196 15.7097 25.622 15.7115 25.6245 15.7139C25.6259 15.7151 25.6279 15.7163 25.6294 15.7178L25.6304 15.7188L25.6158 15.707ZM25.6158 15.707C25.6126 15.7043 25.6104 15.7023 25.6089 15.7012L25.606 15.6982L25.6158 15.707ZM20.9429 4.71094C20.9348 4.71094 20.9566 4.71065 21.021 4.72559C21.0798 4.73924 21.1571 4.76122 21.2525 4.79297C21.4433 4.85652 21.6868 4.95279 21.9683 5.07715C22.5309 5.32572 23.2228 5.67887 23.9068 6.09082C24.5923 6.50376 25.2568 6.96804 25.7749 7.43555C26.3087 7.91712 26.6228 8.34536 26.7115 8.67773C26.9475 9.56303 27.0121 10.7146 26.9195 11.8574C26.8267 13.0018 26.5801 14.0879 26.23 14.8467C25.869 15.6284 25.6152 15.6927 25.6031 15.6953C25.4612 15.5752 25.2632 15.5424 25.0894 15.6143C24.9027 15.6916 24.781 15.8741 24.7808 16.0762V16.0879C24.7808 16.0959 24.7799 16.1081 24.7798 16.124C24.7796 16.1558 24.7798 16.2026 24.7788 16.2617C24.7769 16.3802 24.7729 16.5476 24.7652 16.7422C24.7495 17.1347 24.718 17.6262 24.6577 18.0479C24.6128 18.3612 24.3291 18.9459 23.8374 19.5605C23.3561 20.1622 22.7448 20.7053 22.1392 20.9805C21.77 21.1483 21.259 21.4203 20.7036 21.7188C20.1412 22.021 19.5218 22.3565 18.9146 22.6641C18.3054 22.9726 17.7238 23.2455 17.2388 23.4248C16.9961 23.5145 16.7892 23.5758 16.6236 23.6084C16.4593 23.6407 16.3759 23.635 16.3482 23.6299C16.338 23.6234 16.3009 23.5986 16.2408 23.5244C16.1569 23.4209 16.0623 23.2645 15.9634 23.0557C15.7662 22.6395 15.584 22.0887 15.4273 21.5244C15.2718 20.9646 15.1464 20.4102 15.0601 19.9941C15.017 19.7865 14.9839 19.614 14.9615 19.4941C14.9503 19.4345 14.9417 19.3879 14.9361 19.3564C14.9332 19.3407 14.9316 19.3282 14.9302 19.3203C14.9295 19.3164 14.9286 19.3134 14.9283 19.3115V19.3096C14.895 19.1153 14.7515 18.9612 14.5659 18.9111L14.4839 18.8965H14.4829C14.4821 18.8964 14.4807 18.8957 14.479 18.8955C14.4757 18.8952 14.4708 18.8952 14.4644 18.8945C14.4514 18.8932 14.4323 18.8912 14.4077 18.8887C14.3583 18.8837 14.2865 18.8764 14.1997 18.8672C14.0261 18.8488 13.7908 18.8226 13.5445 18.793C13.2976 18.7633 13.0426 18.7305 12.8277 18.6973C12.7804 18.69 12.7367 18.6815 12.6968 18.6748C12.7064 18.5965 12.7213 18.5031 12.7408 18.3945C12.8164 17.9719 12.954 17.4079 13.107 16.835C13.2591 16.2652 13.4228 15.6979 13.5493 15.2725C13.6126 15.0599 13.6668 14.8832 13.7046 14.7598C13.7235 14.6983 13.7384 14.65 13.7486 14.6172C13.7537 14.6008 13.7577 14.5875 13.7603 14.5791L13.7642 14.5674C13.8286 14.3616 13.7537 14.1375 13.5786 14.0117L13.5777 14.0107C13.5769 14.0102 13.5756 14.0091 13.5738 14.0078C13.5702 14.0052 13.5645 14.0015 13.5572 13.9961C13.5421 13.9851 13.5189 13.9689 13.4898 13.9473C13.4315 13.904 13.347 13.8398 13.2437 13.7598H13.2447C12.5415 13.2144 12.1284 12.3723 12.1284 11.4824V8.33594C12.2388 7.58195 12.8111 6.8371 13.6411 6.24414C14.3692 5.72408 15.2248 5.37301 15.9536 5.25586L16.2574 5.21973C17.1674 5.15474 18.1713 5.02533 19.0298 4.91406C19.9118 4.79975 20.6017 4.71094 20.9429 4.71094Z" fill="white" stroke="white" stroke-miterlimit="10" stroke-linecap="round" stroke-linejoin="round"/>
<path d="M22.5381 12.3105C22.5381 12.1015 22.4082 11.9182 22.2188 11.8447L22.1338 11.8193L22.127 11.8184C22.1205 11.817 22.11 11.8147 22.0957 11.8115C22.0668 11.805 22.0223 11.7949 21.9659 11.7803C21.8525 11.7509 21.6898 11.7039 21.5 11.6377C21.1165 11.5038 20.6402 11.2952 20.2266 10.9922C20.1364 10.9261 20.0845 10.8324 20.0713 10.6719C20.057 10.4969 20.0948 10.275 20.1729 10.0332C20.2492 9.79726 20.3533 9.57439 20.4405 9.40723C20.4836 9.32454 20.5213 9.25719 20.5479 9.21191C20.5611 9.18943 20.5715 9.17199 20.5782 9.16113C20.5812 9.15618 20.5836 9.15263 20.585 9.15039C20.5856 9.14951 20.5867 9.1488 20.587 9.14844H20.586C20.6961 8.97628 20.6902 8.7541 20.5713 8.58789C20.4524 8.42193 20.2443 8.34509 20.0459 8.39355H20.045C20.0441 8.39377 20.0428 8.39412 20.0411 8.39453C20.0371 8.3955 20.0308 8.39744 20.0225 8.39941C20.0059 8.40336 19.9809 8.40849 19.9483 8.41602C19.8829 8.43113 19.7866 8.45329 19.6651 8.47949C19.4215 8.532 19.0766 8.60176 18.6749 8.67188C17.866 8.81303 16.8457 8.95112 15.9522 8.95117C14.9823 8.95117 13.231 9.00245 11.8584 8.57324C11.1779 8.36042 10.6642 8.05028 10.3741 7.625C10.0979 7.22017 9.96628 6.62462 10.2295 5.69824C11.0141 2.93851 13.901 1.77122 16.8877 1.15234C17.4702 1.03194 18.0469 0.933748 18.5997 0.848633C19.888 0.650362 21.5845 0.420756 23.1866 0.526367C24.8017 0.632897 26.2048 1.07262 27.0323 2.09961C27.5892 2.79255 28.0415 4.11115 28.2422 5.75098C28.4406 7.37163 28.3837 9.22857 27.9883 10.9395C27.759 11.9319 27.5017 12.6618 27.2608 13.1973C27.216 12.779 27.1261 12.2896 26.9668 11.7188C26.7752 11.0317 26.4753 10.5394 26.0459 10.2793C25.599 10.0086 25.1269 10.0567 24.7549 10.2002C24.3903 10.3409 24.0762 10.5873 23.8565 10.8125C23.745 10.9268 23.6471 11.0463 23.5733 11.1602C23.5366 11.2168 23.5 11.2797 23.4717 11.3457C23.4473 11.4027 23.4103 11.5037 23.4102 11.624C23.4102 11.7944 23.4096 12.4116 23.3018 12.9912C23.2473 13.2842 23.1722 13.5305 23.0791 13.6973C22.9871 13.8622 22.9247 13.8717 22.9141 13.873C22.9082 13.8738 22.9041 13.8731 22.9024 13.873C22.8965 13.8695 22.874 13.8544 22.8418 13.8086C22.7668 13.7014 22.6961 13.5171 22.6426 13.2754C22.5912 13.043 22.5645 12.8007 22.5508 12.6123C22.5441 12.5195 22.5408 12.4421 22.5391 12.3887C22.5383 12.3623 22.5383 12.3415 22.5381 12.3281V12.3105Z" fill="black" stroke="white" stroke-miterlimit="10" stroke-linecap="round" stroke-linejoin="round"/>
<mask id="path-21-inside-4_2_3759" fill="white">
<path d="M15.7118 14.6726C15.7118 14.6726 16.7324 15.3105 18.0085 14.4175Z"/>
</mask>
<path d="M16.2418 13.8246C15.7735 13.5319 15.1565 13.6743 14.8638 14.1426C14.5711 14.6109 14.7135 15.2279 15.1818 15.5206L15.7118 14.6726L16.2418 13.8246ZM18.5818 15.2368C19.0343 14.9202 19.1444 14.2967 18.8278 13.8442C18.5112 13.3917 17.8877 13.2815 17.4352 13.5982L18.0085 14.4175L18.5818 15.2368ZM15.7118 14.6726C15.1818 15.5206 15.1823 15.5209 15.1828 15.5212C15.183 15.5213 15.1835 15.5217 15.1838 15.5219C15.1845 15.5223 15.1852 15.5227 15.186 15.5232C15.1874 15.5241 15.189 15.525 15.1906 15.526C15.1938 15.528 15.1973 15.5301 15.201 15.5324C15.2086 15.5369 15.2173 15.542 15.2271 15.5476C15.2467 15.5588 15.2708 15.5721 15.2993 15.5868C15.3562 15.6162 15.4312 15.6517 15.5226 15.6879C15.7046 15.7601 15.9578 15.8377 16.267 15.8733C16.9055 15.947 17.7283 15.8341 18.5818 15.2368L18.0085 14.4175L17.4352 13.5982C17.0125 13.8939 16.687 13.9085 16.4962 13.8865C16.3908 13.8743 16.309 13.8482 16.2598 13.8287C16.2356 13.8191 16.2209 13.8118 16.217 13.8097C16.2151 13.8088 16.2161 13.8092 16.2201 13.8115C16.2221 13.8127 16.2249 13.8143 16.2285 13.8165C16.2303 13.8176 16.2323 13.8188 16.2345 13.8201C16.2357 13.8208 16.2368 13.8215 16.238 13.8223C16.2386 13.8226 16.2392 13.823 16.2399 13.8234C16.2402 13.8236 16.2407 13.8239 16.2408 13.824C16.2413 13.8243 16.2418 13.8246 15.7118 14.6726Z" fill="white" mask="url(#path-21-inside-4_2_3759)"/>
<mask id="path-23-inside-5_2_3759" fill="white">
<path d="M14.8187 13.653C14.8187 13.653 16.8602 12.2493 18.6462 12.8876Z"/>
</mask>
<path d="M14.2521 12.829C13.7971 13.1419 13.6818 13.7645 13.9947 14.2196C14.3076 14.6747 14.9302 14.7899 15.3853 14.477L14.8187 13.653L14.2521 12.829ZM18.3097 13.8293C18.8297 14.0151 19.402 13.7442 19.5879 13.2241C19.7737 12.7041 19.5028 12.1318 18.9827 11.9459L18.6462 12.8876L18.3097 13.8293ZM14.8187 13.653C15.3853 14.477 15.385 14.4772 15.3848 14.4773C15.3847 14.4774 15.3845 14.4776 15.3844 14.4776C15.3841 14.4778 15.3839 14.478 15.3836 14.4781C15.3832 14.4784 15.3829 14.4786 15.3827 14.4788C15.3823 14.479 15.3824 14.479 15.383 14.4786C15.3841 14.4779 15.387 14.4759 15.3917 14.4728C15.4012 14.4666 15.4176 14.4559 15.4406 14.4415C15.4866 14.4127 15.5581 14.3695 15.6506 14.3182C15.8372 14.2147 16.1013 14.0828 16.4094 13.9689C17.0553 13.7302 17.7419 13.6263 18.3097 13.8293L18.6462 12.8876L18.9827 11.9459C17.7646 11.5106 16.5374 11.7894 15.7161 12.093C15.2905 12.2502 14.9326 12.4294 14.6806 12.5691C14.5538 12.6394 14.4518 12.7009 14.3792 12.7464C14.3429 12.7691 14.3138 12.788 14.2924 12.802C14.2817 12.809 14.273 12.8149 14.2663 12.8194C14.2629 12.8217 14.26 12.8236 14.2577 12.8252C14.2565 12.826 14.2555 12.8267 14.2545 12.8274C14.2541 12.8277 14.2536 12.828 14.2532 12.8282C14.253 12.8284 14.2528 12.8286 14.2527 12.8286C14.2524 12.8288 14.2521 12.829 14.8187 13.653Z" fill="white" mask="url(#path-23-inside-5_2_3759)"/>
<path d="M35.963 69.4336L35.3858 69.9727L33.6143 67.3154L33.669 67.2676L35.963 69.4336Z" fill="white" stroke="white" stroke-miterlimit="10" stroke-linecap="round" stroke-linejoin="round"/>
<path d="M34.6479 70.9658L32.644 74.626L28.1636 71.2656C28.3386 71.043 28.5691 70.7502 28.8091 70.4453C29.3113 69.8072 29.853 69.1198 30.019 68.9121C29.9935 68.9439 29.9974 68.9263 30.103 68.8691C30.1917 68.8212 30.3143 68.7653 30.4663 68.7041C30.7692 68.5822 31.1518 68.4536 31.5337 68.335C31.9136 68.2169 32.2846 68.1114 32.561 68.0352C32.6002 68.0244 32.6373 68.0135 32.6723 68.0039L34.6479 70.9658Z" fill="white" stroke="white" stroke-miterlimit="10" stroke-linecap="round" stroke-linejoin="round"/>
<mask id="path-27-inside-6_2_3759" fill="white">
<path d="M19.4518 30.2378L23.1123 27.3042L23.6328 31.743"/>
</mask>
<path d="M19.4518 30.2378L23.1123 27.3042L23.6328 31.743" fill="white"/>
<path d="M18.8265 29.4575C18.3955 29.8029 18.3261 30.4322 18.6715 30.8632C19.0169 31.2942 19.6463 31.3635 20.0772 31.0182L19.4518 30.2378L18.8265 29.4575ZM23.1123 27.3042L24.1055 27.1877C24.0632 26.8266 23.8282 26.517 23.4918 26.379C23.1554 26.241 22.7707 26.2965 22.487 26.5239L23.1123 27.3042ZM22.6396 31.8594C22.7039 32.408 23.2007 32.8005 23.7493 32.7362C24.2978 32.6718 24.6903 32.175 24.626 31.6265L23.6328 31.743L22.6396 31.8594ZM19.4518 30.2378L20.0772 31.0182L23.7377 28.0845L23.1123 27.3042L22.487 26.5239L18.8265 29.4575L19.4518 30.2378ZM23.1123 27.3042L22.1192 27.4207L22.6396 31.8594L23.6328 31.743L24.626 31.6265L24.1055 27.1877L23.1123 27.3042Z" fill="white" mask="url(#path-27-inside-6_2_3759)"/>
<path d="M20.9733 36.063L19.0904 38.9741L19.193 36.3481L21.5611 30.8228C21.5649 30.814 21.5657 30.8043 21.569 30.7954L20.9733 36.063ZM22.8766 29.9849L21.9527 30.2319C21.7782 30.2785 21.644 30.4145 21.5983 30.5854C21.5923 30.5119 21.572 30.439 21.5338 30.3735L21.1197 29.6655L22.7096 28.3062L22.8766 29.9849Z" fill="black" stroke="white" stroke-miterlimit="10" stroke-linecap="round" stroke-linejoin="round"/>
<mask id="path-30-inside-7_2_3759" fill="white">
<path d="M35.5069 32.7468C35.5069 32.7468 33.8343 36.4264 34.8381 40.106C35.8418 43.7855 38.3502 52.8167 38.3502 52.8167L33.6594 66.3581L37.1715 70.372C37.1715 70.372 47.7159 55.827 47.8833 53.82C48.0507 51.813 43.5349 28.398 43.033 27.0603C42.5312 25.7222 38.5172 25.5552 38.5172 25.5552"/>
</mask>
<path d="M35.5069 32.7468C35.5069 32.7468 33.8343 36.4264 34.8381 40.106C35.8418 43.7855 38.3502 52.8167 38.3502 52.8167L33.6594 66.3581L37.1715 70.372C37.1715 70.372 47.7159 55.827 47.8833 53.82C48.0507 51.813 43.5349 28.398 43.033 27.0603C42.5312 25.7222 38.5172 25.5552 38.5172 25.5552" fill="black"/>
<path d="M36.4173 33.1607C36.6458 32.6579 36.4235 32.065 35.9207 31.8365C35.418 31.6079 34.8251 31.8303 34.5966 32.333L35.5069 32.7468L36.4173 33.1607ZM38.3502 52.8167L39.2951 53.1441C39.3616 52.9522 39.368 52.7447 39.3137 52.5491L38.3502 52.8167ZM33.6594 66.3581L32.7145 66.0307C32.5969 66.37 32.6704 66.7463 32.9068 67.0166L33.6594 66.3581ZM37.1715 70.372L36.4189 71.0305C36.6194 71.2596 36.9132 71.3849 37.2173 71.371C37.5213 71.3571 37.8025 71.2054 37.9811 70.959L37.1715 70.372ZM43.033 27.0603L42.0967 27.4115L42.0967 27.4116L43.033 27.0603ZM38.5587 24.556C38.0069 24.5331 37.541 24.9618 37.518 25.5136C37.4951 26.0654 37.9238 26.5314 38.4756 26.5543L38.5172 25.5552L38.5587 24.556ZM35.5069 32.7468C34.5966 32.333 34.5964 32.3333 34.5963 32.3336C34.5962 32.3337 34.5961 32.334 34.596 32.3343C34.5958 32.3348 34.5955 32.3353 34.5953 32.3359C34.5947 32.337 34.5941 32.3384 34.5934 32.3401C34.5919 32.3433 34.5901 32.3474 34.5879 32.3525C34.5834 32.3625 34.5774 32.3761 34.5701 32.3932C34.5554 32.4273 34.5352 32.4752 34.5105 32.5359C34.4612 32.6573 34.394 32.8306 34.3176 33.0484C34.1651 33.4831 33.9747 34.0998 33.8179 34.8391C33.5068 36.3058 33.3143 38.3198 33.8733 40.3691L34.8381 40.106L35.8028 39.8428C35.3581 38.2125 35.5001 36.547 35.7743 35.2541C35.9102 34.6136 36.0751 34.0803 36.2049 33.7102C36.2697 33.5255 36.3253 33.3825 36.3635 33.2884C36.3826 33.2413 36.3974 33.2066 36.4067 33.1849C36.4113 33.1741 36.4146 33.1666 36.4164 33.1626C36.4174 33.1605 36.4179 33.1593 36.418 33.159C36.4181 33.1588 36.4181 33.1589 36.418 33.1592C36.4179 33.1593 36.4178 33.1595 36.4177 33.1598C36.4176 33.1599 36.4175 33.1601 36.4175 33.1602C36.4174 33.1604 36.4173 33.1607 35.5069 32.7468ZM34.8381 40.106L33.8733 40.3691C34.3758 42.2111 35.2543 45.3906 36.0068 48.1081C36.3831 49.4671 36.7281 50.7112 36.979 51.6155C37.1044 52.0676 37.2063 52.4348 37.2769 52.689C37.3122 52.8161 37.3396 52.9149 37.3582 52.982C37.3675 53.0155 37.3747 53.0411 37.3794 53.0583C37.3818 53.0669 37.3836 53.0734 37.3848 53.0778C37.3854 53.08 37.3859 53.0816 37.3862 53.0827C37.3864 53.0833 37.3865 53.0837 37.3866 53.0839C37.3866 53.0841 37.3866 53.0842 37.3866 53.0843C37.3867 53.0843 37.3867 53.0844 38.3502 52.8167C39.3137 52.5491 39.3137 52.5491 39.3137 52.549C39.3137 52.549 39.3136 52.5489 39.3136 52.5487C39.3135 52.5484 39.3134 52.548 39.3133 52.5475C39.313 52.5464 39.3125 52.5448 39.3119 52.5426C39.3107 52.5382 39.3089 52.5317 39.3065 52.5231C39.3017 52.5059 39.2946 52.4804 39.2853 52.4469C39.2667 52.3798 39.2393 52.2811 39.204 52.154C39.1335 51.8999 39.0316 51.5328 38.9062 51.0808C38.6554 50.1767 38.3105 48.933 37.9343 47.5743C37.1816 44.8563 36.3041 41.6804 35.8028 39.8428L34.8381 40.106ZM38.3502 52.8167L37.4053 52.4894L32.7145 66.0307L33.6594 66.3581L34.6043 66.6854L39.2951 53.1441L38.3502 52.8167ZM33.6594 66.3581L32.9068 67.0166L36.4189 71.0305L37.1715 70.372L37.9241 69.7136L34.412 65.6996L33.6594 66.3581ZM37.1715 70.372C37.9811 70.959 37.9812 70.9589 37.9813 70.9588C37.9814 70.9587 37.9815 70.9585 37.9817 70.9582C37.982 70.9578 37.9825 70.9571 37.9832 70.9561C37.9845 70.9543 37.9865 70.9516 37.9891 70.9481C37.9942 70.9409 38.0019 70.9304 38.0119 70.9164C38.0321 70.8886 38.0619 70.8474 38.1007 70.7936C38.1784 70.686 38.2922 70.5282 38.437 70.3267C38.7265 69.9239 39.1401 69.3464 39.6369 68.6472C40.6301 67.2493 41.9571 65.3632 43.2902 63.413C44.6217 61.465 45.966 59.4432 46.9908 57.7768C47.5022 56.9451 47.9426 56.188 48.2636 55.566C48.4238 55.2556 48.5614 54.965 48.6643 54.707C48.7589 54.4697 48.8566 54.1821 48.8798 53.9032L47.8833 53.82L46.8867 53.7369C46.8891 53.7088 46.8847 53.7701 46.8065 53.9663C46.7365 54.1419 46.6304 54.3696 46.4863 54.6489C46.1986 55.2065 45.7877 55.9151 45.2871 56.7292C44.2877 58.3544 42.9646 60.3451 41.639 62.2843C40.3151 64.2212 38.9956 66.0968 38.0065 67.4888C37.5121 68.1846 37.1006 68.7591 36.8129 69.1595C36.669 69.3597 36.5561 69.5164 36.4792 69.6228C36.4408 69.6761 36.4114 69.7168 36.3916 69.7441C36.3817 69.7577 36.3742 69.7681 36.3693 69.7749C36.3668 69.7784 36.3649 69.7809 36.3637 69.7826C36.363 69.7835 36.3626 69.7841 36.3623 69.7845C36.3621 69.7847 36.362 69.7849 36.362 69.785C36.3619 69.7851 36.3619 69.7851 37.1715 70.372ZM47.8833 53.82L48.8798 53.9032C48.9115 53.523 48.839 52.8191 48.7352 52.02C48.6247 51.1694 48.4581 50.0727 48.2536 48.8192C47.8442 46.3103 47.2782 43.1452 46.6922 40.0057C46.106 36.8654 45.4986 33.745 45.0061 31.3242C44.7599 30.1143 44.5417 29.0757 44.3687 28.2955C44.2052 27.5581 44.0631 26.9592 43.9693 26.709L43.033 27.0603L42.0967 27.4116C42.0965 27.4109 42.1066 27.4398 42.1282 27.5171C42.1479 27.5879 42.1722 27.6815 42.2012 27.7989C42.2591 28.0334 42.3313 28.3458 42.4161 28.7283C42.5855 29.4924 42.8011 30.5183 43.0462 31.723C43.5363 34.1315 44.1415 37.2411 44.7261 40.3727C45.3108 43.505 45.8738 46.6535 46.2797 49.1413C46.4828 50.386 46.6455 51.4584 46.7519 52.2776C46.8051 52.6878 46.8433 53.0268 46.8655 53.2882C46.8766 53.4189 46.8833 53.5243 46.8862 53.6058C46.8876 53.6463 46.888 53.6779 46.8878 53.7017C46.8876 53.7264 46.8867 53.737 46.8867 53.7369L47.8833 53.82ZM43.033 27.0603L43.9693 26.7091C43.6987 25.9876 43.0368 25.5816 42.5307 25.3508C41.9814 25.1003 41.3459 24.9357 40.7793 24.8246C40.2036 24.7118 39.6515 24.6452 39.247 24.6067C39.0435 24.5873 38.8746 24.5748 38.7553 24.5671C38.6956 24.5632 38.6482 24.5605 38.6148 24.5588C38.5981 24.5579 38.585 24.5572 38.5755 24.5568C38.5708 24.5566 38.5671 24.5564 38.5642 24.5563C38.5628 24.5562 38.5617 24.5562 38.5608 24.5561C38.5603 24.5561 38.5599 24.5561 38.5596 24.5561C38.5594 24.5561 38.5592 24.5561 38.5591 24.5561C38.5589 24.556 38.5587 24.556 38.5172 25.5552C38.4756 26.5543 38.4755 26.5543 38.4753 26.5543C38.4753 26.5543 38.4752 26.5543 38.4752 26.5543C38.4751 26.5543 38.475 26.5543 38.4751 26.5543C38.4751 26.5543 38.4754 26.5543 38.4759 26.5543C38.477 26.5544 38.479 26.5545 38.4819 26.5546C38.4877 26.5549 38.4971 26.5553 38.51 26.556C38.5356 26.5574 38.5749 26.5596 38.6259 26.5629C38.7281 26.5695 38.8767 26.5805 39.0575 26.5977C39.4212 26.6323 39.904 26.6911 40.3945 26.7873C40.8941 26.8852 41.3562 27.0133 41.7007 27.1704C42.0883 27.3472 42.1164 27.464 42.0967 27.4115L43.033 27.0603Z" fill="white" mask="url(#path-30-inside-7_2_3759)"/>
<mask id="path-32-inside-8_2_3759" fill="white">
<path d="M35.7423 32.883C36.0032 32.0139 36.3071 31.2211 36.6512 30.6807Z"/>
</mask>
<path d="M34.7845 32.5955C34.6257 33.1244 34.9258 33.682 35.4548 33.8408C35.9837 33.9996 36.5413 33.6995 36.7001 33.1705L35.7423 32.883L34.7845 32.5955ZM37.4947 31.2179C37.7914 30.752 37.6542 30.1339 37.1884 29.8372C36.7226 29.5405 36.1044 29.6776 35.8078 30.1435L36.6512 30.6807L37.4947 31.2179ZM35.7423 32.883L36.7001 33.1705C36.9546 32.3227 37.227 31.6382 37.4947 31.2179L36.6512 30.6807L35.8078 30.1435C35.3871 30.8039 35.0518 31.7051 34.7845 32.5955L35.7423 32.883Z" fill="white" mask="url(#path-32-inside-8_2_3759)"/>
<mask id="path-34-inside-9_2_3759" fill="white">
<path d="M33.6596 66.3584L38.3504 52.817L34.6487 38.1431C34.6487 38.1431 34.8157 36.8891 35.1302 35.3623"/>
</mask>
<path d="M32.7147 66.031C32.5339 66.5529 32.8104 67.1225 33.3323 67.3033C33.8541 67.484 34.4237 67.2075 34.6045 66.6857L33.6596 66.3584L32.7147 66.031ZM38.3504 52.817L39.2953 53.1444C39.3591 52.9602 39.3677 52.7614 39.32 52.5724L38.3504 52.817ZM34.6487 38.1431L33.6575 38.0111C33.6407 38.1369 33.648 38.2647 33.6791 38.3877L34.6487 38.1431ZM36.1096 35.564C36.221 35.0231 35.8729 34.4943 35.3319 34.3829C34.791 34.2714 34.2622 34.6196 34.1508 35.1606L35.1302 35.3623L36.1096 35.564ZM33.6596 66.3584L34.6045 66.6857L39.2953 53.1444L38.3504 52.817L37.4055 52.4897L32.7147 66.031L33.6596 66.3584ZM38.3504 52.817L39.32 52.5724L35.6183 37.8985L34.6487 38.1431L33.6791 38.3877L37.3808 53.0616L38.3504 52.817ZM34.6487 38.1431C35.64 38.2751 35.64 38.2752 35.6399 38.2752C35.6399 38.2752 35.6399 38.2752 35.6399 38.2752C35.6399 38.2753 35.6399 38.2753 35.6399 38.2752C35.6399 38.2752 35.64 38.2751 35.64 38.2749C35.64 38.2745 35.6401 38.2738 35.6403 38.2728C35.6405 38.2709 35.641 38.2677 35.6415 38.2634C35.6427 38.2548 35.6445 38.2416 35.647 38.2239C35.6519 38.1886 35.6593 38.1358 35.6693 38.0673C35.6892 37.9302 35.7192 37.7307 35.7588 37.484C35.8383 36.9899 35.9561 36.3096 36.1096 35.564L35.1302 35.3623L34.1508 35.1606C33.9898 35.9419 33.8669 36.652 33.7842 37.1666C33.7428 37.4242 33.7113 37.6336 33.6901 37.7794C33.6795 37.8523 33.6715 37.9093 33.666 37.9486C33.6633 37.9682 33.6612 37.9834 33.6598 37.9939C33.6591 37.9991 33.6585 38.0032 33.6581 38.0061C33.6579 38.0075 33.6578 38.0087 33.6577 38.0095C33.6576 38.0099 33.6576 38.0103 33.6575 38.0105C33.6575 38.0107 33.6575 38.0108 33.6575 38.0109C33.6575 38.0109 33.6575 38.011 33.6575 38.011C33.6575 38.0111 33.6575 38.0111 34.6487 38.1431Z" fill="white" mask="url(#path-34-inside-9_2_3759)"/>
<path d="M5.82249 37.583L3.60081 38.4014L3.41624 35.5127L5.82249 34.6328V37.583Z" fill="white" stroke="white" stroke-miterlimit="10" stroke-linecap="round" stroke-linejoin="round"/>
<path d="M6.28424 38.5815L2.92487 40.0991L2.95514 39.2427L6.2149 38.1187L6.28424 38.5815Z" fill="white" stroke="white" stroke-miterlimit="10" stroke-linecap="round" stroke-linejoin="round"/>
<path d="M8.46265 27.8213C8.46609 27.8223 8.51795 27.8392 8.59839 27.9463C8.65699 28.0244 8.65748 28.0624 8.65503 28.0928C8.65014 28.1526 8.62094 28.2469 8.53101 28.4268C8.36571 28.7573 8.02918 29.2951 7.84448 30.0342C7.75182 30.4049 7.70742 30.7686 7.67651 31.1045C7.6441 31.4568 7.62924 31.7429 7.59351 32.0391C7.52467 32.6092 7.39792 33.0022 7.07397 33.2969C6.65186 33.6804 6.35752 33.8449 6.08472 34.0195C5.82311 34.187 5.58272 34.366 5.37671 34.708L5.28979 34.8652C5.2693 34.9057 5.19422 34.9948 5.01733 35.0938C4.84977 35.1875 4.63451 35.2652 4.40894 35.3086C4.182 35.3522 3.96988 35.3565 3.80542 35.3262C3.63711 35.2951 3.56844 35.2387 3.54468 35.207C3.49343 35.1387 3.40999 34.9278 3.33081 34.5479C3.25752 34.1962 3.20289 33.7764 3.16187 33.3662C3.12105 32.9582 3.09526 32.5689 3.07983 32.2812C3.07477 32.1867 3.07016 32.1034 3.06714 32.0342L5.53979 29.6992L6.12573 30.3535C6.29834 30.5461 6.59018 30.5754 6.79761 30.4209V30.4199H6.79858L6.79956 30.4189L6.81519 30.4072C6.82409 30.4003 6.83595 30.3906 6.85034 30.3789C6.8794 30.3553 6.91918 30.322 6.96655 30.2793C7.06136 30.1938 7.18912 30.0695 7.32495 29.9102C7.59365 29.5949 7.912 29.1217 8.06226 28.5205C8.17277 28.0782 8.35083 27.8811 8.43823 27.832C8.44689 27.8272 8.45373 27.8246 8.45776 27.8232C8.46019 27.8224 8.4617 27.8215 8.46265 27.8213Z" fill="white" stroke="white" stroke-miterlimit="10" stroke-linecap="round" stroke-linejoin="round"/>
<path d="M13.9402 20.9092L12.0877 25.3086C11.4227 26.3482 10.0447 26.6645 8.99297 26.0098C7.94241 25.3558 7.61589 23.9799 8.25371 22.9238L11.3846 19.3184L13.9402 20.9092Z" stroke="white" stroke-miterlimit="10" stroke-linecap="round" stroke-linejoin="round"/>
<mask id="path-40-inside-10_2_3759" fill="white">
<path d="M9.18779 26.4182L8.54886 26.0205L3.82076 33.6173L4.45969 34.015L9.18779 26.4182Z"/>
</mask>
<path d="M9.18779 26.4182L8.54886 26.0205L3.82076 33.6173L4.45969 34.015L9.18779 26.4182Z" fill="white"/>
<path d="M8.54886 26.0205L9.07726 25.1715C8.60837 24.8797 7.99169 25.0232 7.69986 25.4921L8.54886 26.0205ZM9.18779 26.4182L10.0368 26.9466C10.3286 26.4777 10.1851 25.861 9.71619 25.5692L9.18779 26.4182ZM4.45969 34.015L3.93129 34.864C4.40018 35.1558 5.01686 35.0123 5.30869 34.5434L4.45969 34.015ZM3.82076 33.6173L2.97176 33.0889C2.67993 33.5578 2.82347 34.1745 3.29236 34.4663L3.82076 33.6173ZM8.54886 26.0205L8.02046 26.8695L8.65939 27.2672L9.18779 26.4182L9.71619 25.5692L9.07726 25.1715L8.54886 26.0205ZM9.18779 26.4182L8.33879 25.8898L3.61069 33.4866L4.45969 34.015L5.30869 34.5434L10.0368 26.9466L9.18779 26.4182ZM4.45969 34.015L4.98809 33.166L4.34916 32.7683L3.82076 33.6173L3.29236 34.4663L3.93129 34.864L4.45969 34.015ZM3.82076 33.6173L4.66976 34.1457L9.39786 26.5489L8.54886 26.0205L7.69986 25.4921L2.97176 33.0889L3.82076 33.6173Z" fill="white" mask="url(#path-40-inside-10_2_3759)"/>
<path d="M11.73 24.2031L11.3999 24.9863C10.9539 25.6696 10.0433 25.8747 9.34721 25.4414H9.34624C8.73613 25.061 8.49274 24.3151 8.72319 23.6641L11.73 24.2031Z" fill="black" stroke="white" stroke-miterlimit="10" stroke-linecap="round" stroke-linejoin="round"/>
<path d="M11.7296 19.5303L9.40196 22.556" stroke="white" stroke-miterlimit="10" stroke-linecap="round" stroke-linejoin="round"/>
<path d="M3.60352 34.0767L4.13184 34.4067L4.13867 34.4146L3.58984 34.0728L3.60352 34.0767Z" fill="white" stroke="white" stroke-miterlimit="10" stroke-linecap="round" stroke-linejoin="round"/>
<path d="M5.19583 26.8286C5.3868 26.8543 5.61421 26.9336 5.84818 27.0435C6.0777 27.1512 6.28998 27.2775 6.44681 27.3784C6.52432 27.4283 6.58698 27.4707 6.62943 27.5005C6.64864 27.514 6.664 27.5252 6.67435 27.5327C6.68407 27.5416 6.69768 27.5541 6.71439 27.5698C6.75271 27.6059 6.8075 27.6584 6.87064 27.7222C6.99886 27.8516 7.15425 28.0195 7.28177 28.188C7.33557 28.2591 7.37568 28.3219 7.40677 28.3735C7.19062 28.3919 6.94892 28.344 6.65384 28.2407C6.46127 28.1733 6.26887 28.0918 6.05228 28.0024C5.84293 27.9161 5.61354 27.824 5.37845 27.7534C5.07527 27.6624 4.84395 27.454 4.75638 27.2671C4.71571 27.1803 4.71309 27.1147 4.72318 27.0688C4.73246 27.0268 4.76263 26.9562 4.87259 26.8706C4.91294 26.8392 5.00236 26.8026 5.19583 26.8286Z" fill="white" stroke="white" stroke-miterlimit="10" stroke-linecap="round" stroke-linejoin="round"/>
<path d="M4.77856 28.4175C4.96953 28.4432 5.19694 28.5225 5.43091 28.6323C5.66043 28.7401 5.87272 28.8664 6.02954 28.9673C6.10706 29.0172 6.16971 29.0595 6.21216 29.0894C6.23138 29.1029 6.24673 29.1141 6.25708 29.1216C6.26681 29.1305 6.28042 29.143 6.29712 29.1587C6.33545 29.1948 6.39022 29.2473 6.45337 29.311C6.58159 29.4405 6.73698 29.6084 6.8645 29.7769C6.91833 29.848 6.95841 29.9108 6.9895 29.9624C6.77341 29.9807 6.53169 29.9329 6.23657 29.8296C6.04399 29.7622 5.85163 29.6807 5.63501 29.5913C5.42549 29.5049 5.19553 29.4119 4.96021 29.3413H4.95923C4.65686 29.25 4.42652 29.0425 4.33911 28.856C4.29844 28.7692 4.29583 28.7036 4.30591 28.6577C4.31519 28.6156 4.34536 28.5451 4.45532 28.4595C4.49567 28.4281 4.5851 28.3915 4.77856 28.4175Z" fill="white" stroke="white" stroke-miterlimit="10" stroke-linecap="round" stroke-linejoin="round"/>
<path d="M3.94162 29.9224C4.13259 29.9481 4.36 30.0274 4.59396 30.1372C4.82348 30.245 5.03577 30.3713 5.1926 30.4722C5.27011 30.522 5.33276 30.5644 5.37521 30.5942C5.39443 30.6077 5.40979 30.619 5.42014 30.6265C5.42987 30.6354 5.44348 30.6479 5.46017 30.6636C5.49851 30.6997 5.55326 30.7521 5.61642 30.8159C5.74463 30.9454 5.90004 31.1132 6.02756 31.2817C6.08136 31.3528 6.12147 31.4157 6.15256 31.4673C5.93647 31.4857 5.69478 31.4378 5.39963 31.3345C5.20705 31.2671 5.0147 31.1855 4.79807 31.0962C4.58856 31.0098 4.35858 30.9167 4.12326 30.8462H4.12228C3.82003 30.7549 3.58964 30.5475 3.50217 30.3608C3.46146 30.274 3.45889 30.2084 3.46896 30.1626C3.4782 30.1206 3.50825 30.05 3.61838 29.9644C3.65873 29.933 3.74815 29.8964 3.94162 29.9224Z" fill="white" stroke="white" stroke-miterlimit="10" stroke-linecap="round" stroke-linejoin="round"/>
<path d="M3.23587 31.5166C3.3575 31.5329 3.51089 31.585 3.67728 31.6631C3.8393 31.7391 3.99067 31.8291 4.10306 31.9014C4.1584 31.937 4.20297 31.9672 4.23294 31.9883C4.24265 31.9951 4.2509 32.0012 4.25735 32.0059C4.26357 32.0116 4.27159 32.0187 4.28079 32.0273C4.30808 32.053 4.34691 32.0911 4.39212 32.1367C4.45752 32.2027 4.52989 32.2831 4.59915 32.3652C4.5304 32.3498 4.45461 32.3292 4.37064 32.2998C4.23328 32.2517 4.09553 32.1935 3.93411 32.127C3.78005 32.0634 3.60607 31.9934 3.4263 31.9395C3.23373 31.8816 3.0965 31.7509 3.05032 31.6523C3.03034 31.6097 3.03562 31.5911 3.03568 31.5908C3.03606 31.5892 3.03744 31.5843 3.04349 31.5752C3.05038 31.5648 3.06554 31.5451 3.0972 31.5205C3.08782 31.5278 3.11183 31.5 3.23587 31.5166Z" fill="white" stroke="white" stroke-miterlimit="10" stroke-linecap="round" stroke-linejoin="round"/>
<mask id="path-49-inside-11_2_3759" fill="white">
<path d="M11.0588 50.2656C11.0588 50.2656 9.91335 54.5609 6.54873 54.5609C3.18411 54.5609 2.39654 51.3393 2.25347 48.9053C2.1104 46.4714 2.03865 40.9589 2.03865 40.9589L7.19321 38.668C7.19321 38.668 9.55544 45.9699 9.6272 46.2565"/>
</mask>
<path d="M11.0588 50.2656C11.0588 50.2656 9.91335 54.5609 6.54873 54.5609C3.18411 54.5609 2.39654 51.3393 2.25347 48.9053C2.1104 46.4714 2.03865 40.9589 2.03865 40.9589L7.19321 38.668C7.19321 38.668 9.55544 45.9699 9.6272 46.2565" fill="black"/>
<path d="M12.025 50.5233C12.1674 49.9897 11.8501 49.4417 11.3165 49.2994C10.7829 49.1571 10.2349 49.4743 10.0926 50.008L11.0588 50.2656L12.025 50.5233ZM2.03865 40.9589L1.63251 40.0451C1.26707 40.2075 1.03353 40.572 1.03874 40.9719L2.03865 40.9589ZM7.19321 38.668L8.14467 38.3602C8.0574 38.0904 7.85973 37.8704 7.60083 37.7548C7.34194 37.6392 7.04616 37.639 6.78708 37.7542L7.19321 38.668ZM8.65715 46.4994C8.79129 47.0352 9.33434 47.3607 9.87009 47.2266C10.4058 47.0924 10.7314 46.5494 10.5973 46.0136L9.6272 46.2565L8.65715 46.4994ZM11.0588 50.2656C10.0926 50.008 10.0927 50.0076 10.0927 50.0073C10.0928 50.0072 10.0929 50.0069 10.0929 50.0068C10.093 50.0064 10.0931 50.0062 10.0931 50.006C10.0932 50.0055 10.0933 50.0054 10.0932 50.0055C10.0932 50.0056 10.0929 50.0068 10.0923 50.0089C10.0911 50.0132 10.0888 50.0212 10.0854 50.0329C10.0786 50.0561 10.0673 50.0936 10.0513 50.1431C10.0193 50.2425 9.96873 50.3893 9.8979 50.5676C9.75501 50.9273 9.53593 51.3991 9.23026 51.8634C8.60537 52.8125 7.74278 53.5609 6.54873 53.5609V54.5609V55.5609C8.71929 55.5609 10.1117 54.1616 10.9007 52.9631C11.302 52.3536 11.5796 51.7516 11.7566 51.3059C11.8457 51.0816 11.911 50.8928 11.9547 50.7572C11.9766 50.6894 11.9932 50.6345 12.0048 50.5949C12.0106 50.575 12.0152 50.559 12.0186 50.547C12.0202 50.541 12.0216 50.536 12.0227 50.532C12.0232 50.53 12.0237 50.5283 12.0241 50.5269C12.0243 50.5261 12.0245 50.5255 12.0246 50.5249C12.0247 50.5246 12.0248 50.5242 12.0248 50.524C12.0249 50.5237 12.025 50.5233 11.0588 50.2656ZM6.54873 54.5609V53.5609C5.26852 53.5609 4.54078 52.9872 4.06083 52.149C3.54068 51.2405 3.32024 50.0119 3.25175 48.8467L2.25347 48.9053L1.2552 48.964C1.32978 50.2328 1.57466 51.8319 2.32521 53.1427C3.11596 54.5238 4.46431 55.5609 6.54873 55.5609V54.5609ZM2.25347 48.9053L3.25175 48.8467C3.18147 47.6511 3.12805 45.6824 3.09218 43.9981C3.07432 43.159 3.06091 42.3957 3.05197 41.8421C3.0475 41.5653 3.04414 41.3411 3.04191 41.1861C3.04079 41.1086 3.03995 41.0484 3.0394 41.0077C3.03912 40.9873 3.03891 40.9718 3.03877 40.9614C3.0387 40.9562 3.03865 40.9523 3.03862 40.9497C3.0386 40.9484 3.03859 40.9474 3.03858 40.9468C3.03857 40.9465 3.03857 40.9462 3.03857 40.9461C3.03857 40.946 3.03857 40.946 3.03857 40.9459C3.03857 40.9459 3.03857 40.9459 2.03865 40.9589C1.03874 40.9719 1.03874 40.9719 1.03874 40.972C1.03874 40.972 1.03874 40.9721 1.03874 40.9722C1.03874 40.9724 1.03874 40.9726 1.03875 40.973C1.03876 40.9737 1.03877 40.9747 1.03879 40.9761C1.03883 40.9788 1.03888 40.9828 1.03895 40.9881C1.03909 40.9987 1.0393 41.0145 1.03958 41.0351C1.04015 41.0763 1.04099 41.1369 1.04212 41.2149C1.04437 41.3709 1.04774 41.5963 1.05223 41.8744C1.06121 42.4304 1.07468 43.1973 1.09264 44.0407C1.12842 45.7211 1.1824 47.7256 1.2552 48.964L2.25347 48.9053ZM2.03865 40.9589L2.44479 41.8727L7.59935 39.5818L7.19321 38.668L6.78708 37.7542L1.63251 40.0451L2.03865 40.9589ZM7.19321 38.668C6.24176 38.9758 6.24177 38.9758 6.24179 38.9759C6.24181 38.9759 6.24183 38.976 6.24187 38.9761C6.24194 38.9763 6.24205 38.9766 6.24219 38.9771C6.24248 38.978 6.2429 38.9793 6.24347 38.981C6.2446 38.9845 6.2463 38.9898 6.24853 38.9967C6.253 39.0105 6.25963 39.031 6.26828 39.0578C6.28559 39.1113 6.31099 39.1898 6.34335 39.2899C6.40806 39.4901 6.50059 39.7763 6.61185 40.1208C6.83438 40.8097 7.13181 41.7311 7.43146 42.6614C7.73115 43.5918 8.03287 44.5305 8.26404 45.2542C8.37968 45.6162 8.47732 45.9233 8.54813 46.1483C8.62615 46.3963 8.65754 46.501 8.65715 46.4994L9.6272 46.2565L10.5973 46.0136C10.5507 45.8276 9.92306 43.8734 9.33514 42.0482C9.03526 41.1172 8.73765 40.1952 8.51502 39.506C8.4037 39.1614 8.31112 38.8749 8.24636 38.6747C8.21399 38.5745 8.18857 38.4959 8.17124 38.4423C8.16257 38.4155 8.15593 38.395 8.15146 38.3812C8.14922 38.3742 8.14752 38.369 8.14638 38.3655C8.14582 38.3637 8.14539 38.3624 8.1451 38.3615C8.14496 38.3611 8.14485 38.3607 8.14477 38.3605C8.14474 38.3604 8.14471 38.3603 8.14469 38.3603C8.14467 38.3602 8.14467 38.3602 7.19321 38.668Z" fill="white" mask="url(#path-49-inside-11_2_3759)"/>
<mask id="path-51-inside-12_2_3759" fill="white">
<path d="M6.83464 38.8823C6.83464 38.8823 10.822 45.4517 10.822 48.3468Z"/>
</mask>
<path d="M7.68949 38.3635C7.40293 37.8913 6.78789 37.7409 6.31577 38.0275C5.84365 38.314 5.69322 38.9291 5.97979 39.4012L6.83464 38.8823L7.68949 38.3635ZM9.82204 48.3468C9.82204 48.899 10.2698 49.3468 10.822 49.3468C11.3743 49.3468 11.822 48.899 11.822 48.3468H10.822H9.82204ZM6.83464 38.8823C5.97979 39.4012 5.97975 39.4011 5.97973 39.4011C5.97975 39.4011 5.97974 39.4011 5.97977 39.4012C5.97983 39.4013 5.97994 39.4014 5.98012 39.4017C5.98047 39.4023 5.98105 39.4033 5.98188 39.4046C5.98352 39.4074 5.98611 39.4116 5.9896 39.4174C5.99659 39.429 6.00722 39.4467 6.02124 39.4702C6.04928 39.517 6.09089 39.587 6.14412 39.6774C6.25061 39.8584 6.40346 40.1213 6.58719 40.4462C6.95514 41.097 7.44464 41.9924 7.93298 42.9742C8.42269 43.9588 8.90352 45.0149 9.25976 45.9898C9.62547 46.9906 9.82204 47.8068 9.82204 48.3468H10.822H11.822C11.822 47.4392 11.5202 46.3485 11.1383 45.3034C10.7469 44.2322 10.2308 43.1032 9.72371 42.0835C9.21519 41.0612 8.70784 40.1333 8.32815 39.4618C8.13807 39.1256 7.9794 38.8527 7.86783 38.6631C7.81203 38.5683 7.76797 38.4942 7.7376 38.4435C7.72242 38.4181 7.71065 38.3985 7.70255 38.3851C7.69851 38.3784 7.69537 38.3732 7.69318 38.3695C7.69209 38.3677 7.69123 38.3663 7.69062 38.3653C7.69031 38.3648 7.69006 38.3644 7.68987 38.3641C7.68978 38.3639 7.68968 38.3638 7.68964 38.3637C7.68956 38.3636 7.68949 38.3635 6.83464 38.8823Z" fill="white" mask="url(#path-51-inside-12_2_3759)"/>
</svg>
