<svg width="95" height="82" viewBox="0 0 95 82" fill="none" xmlns="http://www.w3.org/2000/svg">
<path d="M85.7032 56.0073L55.126 69.4331L42.1739 40.7427L72.75 27.3179L85.7032 56.0073Z" fill="black" stroke="white"/>
<path d="M63.344 40.0562L62.9231 39.8931L62.7444 40.3647L62.4954 41.0229L61.8284 40.7632L61.3577 40.5796L61.179 41.0522L60.9299 41.7095L60.2639 41.4497L59.7932 41.2671L59.6145 41.7397L59.3655 42.397L58.6995 42.1372L58.2288 41.9536L58.0686 42.3765L54.8235 35.189L60.1008 32.8716L63.344 40.0562Z" fill="black" stroke="white"/>
<path d="M75.4761 58.3125L73.6099 59.1328L72.8511 57.4521L74.7173 56.6328L75.4761 58.3125Z" fill="black" stroke="white"/>
<path d="M79.2629 56.6499L77.3967 57.4702L76.6379 55.7896L78.5042 54.9702L79.2629 56.6499Z" fill="black" stroke="white"/>
<path d="M83.0497 54.9873L81.1835 55.8076L80.4247 54.127L82.2909 53.3076L83.0497 54.9873Z" fill="black" stroke="white"/>
<path d="M66.3289 29.0444L41.7615 39.8315L31.3582 16.7896L55.9266 6.00244L66.3289 29.0444Z" fill="black" stroke="white"/>
<path d="M48.181 16.0122L47.9671 15.9292L47.7884 16.4009L47.6205 16.8433L47.1712 16.6685L46.7005 16.4849L46.5218 16.9575L46.3548 17.3989L45.9056 17.2241L45.4349 17.0405L45.2562 17.5132L45.0882 17.9546L44.639 17.7798L44.1683 17.5962L44.0853 17.813L41.5941 12.2954L45.6908 10.4966L48.181 16.0122Z" fill="black" stroke="white"/>
<path d="M58.0541 30.9097L56.7182 31.4956L56.183 30.311L57.5189 29.7241L58.0541 30.9097Z" fill="black" stroke="white"/>
<path d="M61.1183 29.5645L59.7823 30.1514L59.2472 28.9658L60.5831 28.3789L61.1183 29.5645Z" fill="black" stroke="white"/>
<path d="M64.1825 28.2192L62.8466 28.8052L62.3114 27.6196L63.6474 27.0337L64.1825 28.2192Z" fill="black" stroke="white"/>
<path d="M93.8739 57.9502L52.5292 76.1025L50.8573 72.3984L92.2021 54.2461L93.8739 57.9502Z" fill="black" stroke="white"/>
<path d="M18.7753 0.834961C20.7527 -0.0331498 23.0635 0.846439 23.9393 2.78613L56.2938 74.4502L52.5292 76.1025L20.1708 4.42969L19.9667 3.97852L19.5135 4.17773L8.69225 8.92871C7.82713 9.30843 6.81905 8.92212 6.43834 8.0791C6.05941 7.24002 6.44 6.25033 7.30162 5.87207L18.7753 0.834961Z" fill="black" stroke="white"/>
<path d="M50.252 66.0757C54.3771 64.2646 59.205 66.0971 61.0371 70.1548C62.8675 74.2087 61.021 78.9642 56.8994 80.7739C52.7743 82.5849 47.9473 80.7525 46.1152 76.6948C44.2851 72.641 46.1306 67.8854 50.252 66.0757Z" fill="black" stroke="white"/>
<path d="M51.6172 69.0981C54.0497 68.0301 56.8942 69.1117 57.9727 71.5005C59.0494 73.8853 57.9643 76.6849 55.5352 77.7515C53.1025 78.8194 50.2582 77.7378 49.1797 75.3491C48.1032 72.9642 49.1883 70.1645 51.6172 69.0981Z" fill="black" stroke="white"/>
<path d="M53.0822 72.3423C53.6976 72.0724 54.4125 72.3485 54.6818 72.9448C54.9494 73.5377 54.6823 74.2387 54.0705 74.5073C53.4549 74.7775 52.7392 74.5012 52.4699 73.9048C52.2025 73.3117 52.4706 72.6109 53.0822 72.3423Z" fill="black" stroke="white"/>
<path d="M41.0293 64.7134L8.18555 62.7114L39.2637 60.8022L41.0293 64.7134Z" fill="black" stroke="white"/>
<path d="M37.1982 56.2266L8.12793 54.4424L35.625 52.7412L37.1982 56.2266Z" fill="black" stroke="white"/>
<path d="M33.3672 47.7407L8.05859 46.1743L31.9854 44.6812L33.3672 47.7407Z" fill="black" stroke="white"/>
<path d="M29.5352 39.2539L7.97266 37.9062L28.3457 36.6201L29.5352 39.2539Z" fill="black" stroke="white"/>
<path d="M25.7041 30.7681L7.86621 29.6372L24.7061 28.5591L25.7041 30.7681Z" fill="black" stroke="white"/>
</svg>
