<svg width="12" height="16" viewBox="0 0 12 16" fill="none" xmlns="http://www.w3.org/2000/svg">
<path d="M5.58625 7.12701C6.1848 7.12701 6.73788 6.8112 7.03716 6.29854C7.33643 5.78587 7.33643 5.15425 7.03716 4.64158C6.73788 4.12892 6.1848 3.8131 5.58625 3.8131M5.58576 7.13272C4.97755 7.14755 4.40902 6.83511 4.1005 6.31651C3.79199 5.7979 3.79199 5.15464 4.1005 4.63603C4.40902 4.11743 4.97755 3.80499 5.58576 3.81982M5.58611 0.5C6.25344 0.500014 6.91438 0.628494 7.53206 0.878273C8.45943 1.25366 9.25369 1.89216 9.81471 2.7133C10.372 3.52706 10.6706 4.48701 10.6722 5.46986C10.6722 6.78778 10.248 7.54231 9.182 8.98397L7.70499 11.2647L5.58611 14.5846L3.46724 11.2717L1.99023 8.98699C0.924182 7.54231 0.5 6.7908 0.5 5.47288C0.500988 4.489 0.799637 3.52791 1.35752 2.7133C1.91899 1.89328 2.7132 1.25586 3.64017 0.881291C4.25764 0.630479 4.91859 0.500972 5.58611 0.5Z" stroke="url(#paint0_linear_130_5396)" stroke-linecap="round" stroke-linejoin="round"/>
<defs>
<linearGradient id="paint0_linear_130_5396" x1="0.5" y1="7.54231" x2="10.6722" y2="7.54231" gradientUnits="userSpaceOnUse">
<stop stop-color="#FF2800"/>
<stop offset="1" stop-color="#FF9500"/>
</linearGradient>
</defs>
</svg>
