<svg width="97" height="74" viewBox="0 0 97 74" fill="none" xmlns="http://www.w3.org/2000/svg">
<path d="M64.074 28.1092L57.1811 17.8915C57.0189 17.6482 56.7757 17.405 56.5324 17.2428L55.9647 16.8373C55.316 16.3508 55.316 15.4588 55.9647 14.9722L56.4513 14.6478C56.6946 14.4856 56.9378 14.2424 57.1 13.9991L64.1551 3.94363C64.7227 3.05161 64.8038 1.91632 64.1551 1.10539C63.3442 0.051191 61.8845 -0.192084 60.8303 0.537748L50.6126 7.4306C50.3694 7.59279 50.1261 7.83606 49.9639 8.07934L49.5584 8.64699C49.0719 9.29573 48.1799 9.29573 47.6933 8.64699L47.3689 8.16043C47.2067 7.91715 46.9635 7.67388 46.7202 7.5117L36.6647 0.456651C35.7727 -0.110996 34.6374 -0.192089 33.8265 0.456651C32.7723 1.26757 32.529 2.72724 33.2589 3.78145L40.1517 13.9991C40.3139 14.2424 40.5572 14.4856 40.8005 14.6478L41.3681 15.0533C42.0168 15.5398 42.0168 16.4319 41.3681 16.9184L40.8815 17.2428C40.6383 17.405 40.395 17.6482 40.2328 17.8915L33.0967 28.0281C32.4479 29.0012 32.529 30.2987 33.34 31.1096C34.1509 31.9205 35.4483 32.0827 36.4215 31.434L46.6391 24.5411C46.8824 24.3789 47.1257 24.1356 47.2878 23.8924L47.6933 23.3247C48.1799 22.676 49.0719 22.676 49.5584 23.3247L49.8828 23.8113C50.045 24.0546 50.2883 24.2978 50.5315 24.46L60.7492 31.5961C61.7223 32.2449 63.0198 32.1638 63.8307 31.3529C64.6416 30.3798 64.7227 29.0823 64.074 28.1092Z" fill="white"/>
<path d="M10.9767 71.7441C9.78299 72.8081 8.27792 73.34 6.46145 73.34C4.59308 73.34 3.088 72.8081 1.94622 71.7441C0.648739 70.4986 0 68.7989 0 66.645V63.2586H4.28168V66.645C4.28168 67.6052 4.46333 68.2539 4.82662 68.5913C5.16397 68.9027 5.70891 69.0584 6.46145 69.0584C7.18803 69.0584 7.72 68.9027 8.05735 68.5913C8.44659 68.228 8.64121 67.5792 8.64121 66.645V45.7816H12.9229V66.645C12.9229 68.747 12.2742 70.4467 10.9767 71.7441Z" fill="white"/>
<path d="M27.1239 50.0633H20.1175V56.914H24.9441V61.1956H20.1175V68.747H27.1239V73.0286H15.8358V45.7816H27.1239V50.0633Z" fill="white"/>
<path d="M42.5924 73.0286H38.2329L36.0142 62.0909H34.0679V73.0286H29.7863V45.7816H36.2477C38.0901 45.7816 39.5952 46.3265 40.7629 47.4164C42.0604 48.6101 42.7092 50.2968 42.7092 52.4766V55.3959C42.7092 57.6016 42.0604 59.3013 40.7629 60.495C40.5813 60.6766 40.3737 60.8453 40.1401 61.001L42.5924 73.0286ZM38.4275 52.4766C38.4275 51.5683 38.2329 50.9196 37.8436 50.5304C37.5063 50.219 36.9743 50.0633 36.2477 50.0633H34.0679V57.8092H36.2477C36.9743 57.8092 37.5063 57.6535 37.8436 57.3421C38.2329 56.9788 38.4275 56.3301 38.4275 55.3959V52.4766Z" fill="white"/>
<path d="M49.5389 73.0286H45.2572V45.7816H49.5389V73.0286Z" fill="white"/>
<path d="M63.2959 71.7441C62.1541 72.8081 60.649 73.34 58.7807 73.34C56.9642 73.34 55.4591 72.8081 54.2654 71.7441C52.968 70.4467 52.3192 68.747 52.3192 66.645V52.1652C52.3192 50.0633 52.968 48.3636 54.2654 47.0661C55.4591 46.0022 56.9642 45.4702 58.7807 45.4702C60.649 45.4702 62.1541 46.0022 63.2959 47.0661C64.5934 48.3117 65.2421 50.0114 65.2421 52.1652V54.5785H60.9604V52.1652C60.9604 51.205 60.7788 50.5563 60.4155 50.219C60.0781 49.9076 59.5332 49.7519 58.7807 49.7519C58.0541 49.7519 57.5221 49.9076 57.1848 50.219C56.7955 50.5823 56.6009 51.231 56.6009 52.1652V66.645C56.6009 67.5792 56.7955 68.228 57.1848 68.5913C57.5221 68.9027 58.0541 69.0584 58.7807 69.0584C59.5332 69.0584 60.0781 68.9027 60.4155 68.5913C60.7788 68.2539 60.9604 67.6052 60.9604 66.645V63.1418H65.2421V66.645C65.2421 68.7989 64.5934 70.4986 63.2959 71.7441Z" fill="white"/>
<path d="M76.4776 45.7816H80.7593V73.0286H76.4776V61.1956H72.118V73.0286H67.8364V45.7816H72.118V56.914H76.4776V45.7816Z" fill="white"/>
<path d="M94.5038 71.7441C93.362 72.8081 91.8569 73.34 89.9886 73.34C88.1202 73.34 86.6151 72.8081 85.4734 71.7441C84.1759 70.4986 83.5271 68.7989 83.5271 66.645V52.1652C83.5271 50.0114 84.1759 48.3117 85.4734 47.0661C86.6151 46.0022 88.1202 45.4702 89.9886 45.4702C91.8569 45.4702 93.362 46.0022 94.5038 47.0661C95.8013 48.3117 96.45 50.0114 96.45 52.1652V66.645C96.45 68.7989 95.8013 70.4986 94.5038 71.7441ZM91.5845 50.219C91.2731 49.9076 90.7411 49.7519 89.9886 49.7519C89.262 49.7519 88.73 49.9076 88.3927 50.219C88.0034 50.5823 87.8088 51.231 87.8088 52.1652V66.645C87.8088 67.5792 88.0034 68.228 88.3927 68.5913C88.73 68.9027 89.262 69.0584 89.9886 69.0584C90.7411 69.0584 91.2731 68.9027 91.5845 68.5913C91.9737 68.2539 92.1683 67.6052 92.1683 66.645V52.1652C92.1683 51.205 91.9737 50.5563 91.5845 50.219Z" fill="white"/>
</svg>
