<svg width="310" height="84" viewBox="0 0 310 84" fill="none" xmlns="http://www.w3.org/2000/svg">
<path d="M11.2143 69.1816L5.54498 30.0465L11.6327 29.1646L22.3826 46.8456L19.6529 28.0028L26.8035 26.9669L32.4728 66.1019L26.6267 66.9488L15.6668 47.8184L18.6065 68.1107L11.2143 69.1816Z" fill="black"/>
<path d="M43.6616 64.7026L39.2555 25.4053L56.915 23.4253L57.5787 29.3441L48.6034 30.3504L49.6967 40.102L56.5374 39.335L57.2119 45.3509L50.3712 46.1179L51.6876 57.8586L60.76 56.8413L61.4182 62.7117L43.6616 64.7026Z" fill="black"/>
<path d="M73.3965 61.5571L65.6358 22.4885L73.035 21.9274L77.1141 44.7269L78.3448 21.5737L84.1376 21.1344L88.9808 43.6801L89.6347 20.6686L96.9366 20.1148L95.2049 59.9032L87.6109 60.4791L82.4469 36.9296L81.0879 60.9738L73.3965 61.5571Z" fill="black"/>
<path d="M120.36 59.272C117.889 59.365 115.807 59.0036 114.115 58.1878C112.424 57.372 111.121 56.0694 110.207 54.2799C109.291 52.4578 108.73 50.0851 108.522 47.1617L115.944 45.759C116.04 47.449 116.238 48.8095 116.537 49.8405C116.869 50.8702 117.287 51.6036 117.792 52.0405C118.33 52.4763 118.956 52.6807 119.672 52.6538C120.583 52.6196 121.156 52.2886 121.393 51.6609C121.663 51.032 121.785 50.376 121.759 49.693C121.698 48.0668 121.256 46.7155 120.434 45.6391C119.611 44.5301 118.511 43.4316 117.135 42.3434L113.608 39.4959C112.064 38.2837 110.742 36.9004 109.641 35.3459C108.572 33.7576 107.993 31.7764 107.903 29.4022C107.777 26.0523 108.673 23.462 110.591 21.6312C112.508 19.7678 115.174 18.7719 118.589 18.6435C120.703 18.5641 122.407 18.8582 123.703 19.5261C125.031 20.1927 126.042 21.0992 126.736 22.2455C127.462 23.3582 127.963 24.5607 128.24 25.853C128.548 27.1117 128.74 28.3258 128.816 29.4954L121.338 30.7047C121.262 29.5351 121.143 28.53 120.981 27.6893C120.85 26.8148 120.597 26.1566 120.222 25.7148C119.846 25.2404 119.284 25.0172 118.536 25.0453C117.723 25.0759 117.134 25.44 116.77 26.1377C116.438 26.8341 116.284 27.5238 116.31 28.2068C116.365 29.6704 116.752 30.8609 117.47 31.7784C118.22 32.6621 119.183 33.5867 120.359 34.5521L123.736 37.3076C125.515 38.7063 127.024 40.3106 128.265 42.1204C129.538 43.9289 130.226 46.1992 130.329 48.9312C130.398 50.785 130.039 52.4921 129.251 54.0524C128.462 55.5803 127.303 56.8126 125.775 57.7495C124.279 58.685 122.474 59.1926 120.36 59.272Z" fill="black"/>
<path d="M140.598 58.1215L140.343 18.5788L149.082 18.5225L149.299 52.1582L158.379 52.0997L158.417 58.0067L140.598 58.1215Z" fill="black"/>
<path d="M167.378 58.1031L168.269 18.5696L186.035 18.9702L185.901 24.9246L176.871 24.721L176.65 34.5312L183.532 34.6863L183.395 40.7384L176.514 40.5832L176.247 52.3944L185.374 52.6002L185.241 58.5059L167.378 58.1031Z" fill="black"/>
<path d="M197.706 59.0446L199.408 26.0379L193.46 25.7311L193.795 19.2467L214.418 20.3105L214.083 26.7948L208.184 26.4905L206.481 59.4972L197.706 59.0446Z" fill="black"/>
<path d="M224.435 60.681L227.093 27.7375L221.156 27.2584L221.679 20.7865L242.262 22.4475L241.74 28.9195L235.852 28.4443L233.194 61.3878L224.435 60.681Z" fill="black"/>
<path d="M247.563 62.7022L251.885 23.3955L269.548 25.3376L268.898 31.2579L259.92 30.2708L258.848 40.0247L265.69 40.777L265.028 46.7943L258.186 46.042L256.895 57.7855L265.969 58.7832L265.324 64.655L247.563 62.7022Z" fill="black"/>
<path d="M274.139 65.7348L279.766 26.5937L290.542 28.1429C293.184 28.5227 295.429 29.1415 297.279 29.9992C299.128 30.857 300.476 32.1193 301.321 33.7863C302.203 35.4256 302.448 37.6144 302.054 40.3527C301.822 41.9635 301.487 43.3785 301.049 44.5978C300.611 45.8171 299.97 46.843 299.127 47.6753C298.321 48.4801 297.229 49.0959 295.853 49.5227L298.493 69.2362L289.554 67.9509L287.775 49.7916L285.31 49.4373L282.788 66.9783L274.139 65.7348ZM286.026 44.4601L288.442 44.8075C289.666 44.9835 290.647 44.9107 291.383 44.5892C292.125 44.2354 292.682 43.6744 293.056 42.9061C293.466 42.1102 293.754 41.1324 293.921 39.9726C294.162 38.2974 294.044 36.9487 293.566 35.9265C293.088 34.9043 292.028 34.2751 290.385 34.0389L287.582 33.6359L286.026 44.4601Z" fill="black"/>
</svg>
