<svg width="15" height="15" viewBox="0 0 15 15" fill="none" xmlns="http://www.w3.org/2000/svg">
<path d="M3.23218 0.506836C3.97833 0.506994 4.60045 1.07377 4.68823 1.82617L4.90015 3.70312C4.95136 4.15761 4.79777 4.60541 4.48315 4.92578L3.12964 6.30371C4.18322 8.41962 5.88038 10.141 7.95093 11.2139L9.29761 9.84277C9.61213 9.52257 10.0507 9.36595 10.4968 9.41797L12.3552 9.63379C13.0942 9.7232 13.6506 10.3569 13.6433 11.1094V12.3984C13.6432 13.2403 12.9554 13.9408 12.1287 13.8887C5.88782 13.4938 0.890621 8.41236 0.502686 2.0498C0.45147 1.2079 1.13979 0.506836 1.96655 0.506836H3.23218ZM12.9197 0.5C13.3219 0.500186 13.6511 0.835452 13.6511 1.24512V4.9707C13.6509 5.38015 13.3218 5.71466 12.9197 5.71484H9.26147L7.06616 7.9502V1.24512C7.06616 0.835395 7.39527 0.500093 7.79761 0.5H12.9197Z" stroke="url(#paint0_linear_130_5395)" stroke-linejoin="round"/>
<defs>
<linearGradient id="paint0_linear_130_5395" x1="0.779297" y1="3.18262" x2="12.2793" y2="13.6826" gradientUnits="userSpaceOnUse">
<stop stop-color="#FF2800"/>
<stop offset="1" stop-color="#FF9500"/>
</linearGradient>
</defs>
</svg>
