<svg width="66" height="69" viewBox="0 0 66 69" fill="none" xmlns="http://www.w3.org/2000/svg">
<path d="M64.2206 1.49512C64.2241 2.01835 64.2251 2.66962 64.2118 3.4248C64.175 5.52548 64.0474 8.42465 63.6855 11.6201C62.9535 18.0813 61.2892 25.4874 57.6991 30.0703C54.178 34.5649 48.9559 36.108 44.4609 36.4912C42.2255 36.6818 40.213 36.5803 38.7587 36.4307C38.033 36.356 37.4495 36.27 37.0517 36.2031C37.0458 36.2021 37.0399 36.2002 37.0341 36.1992C37.0319 36.1941 37.0295 36.1887 37.0273 36.1836C36.8671 35.8133 36.6436 35.2677 36.3974 34.5811C35.904 33.2048 35.3236 31.2748 34.9736 29.0586C34.2697 24.6026 34.5181 19.1635 38.039 14.6689C41.6291 10.0862 48.4213 6.69683 54.5195 4.43945C57.5356 3.32298 60.3206 2.50543 62.3515 1.9668C63.0808 1.77337 63.7121 1.61693 64.2206 1.49512Z" fill="black" stroke="white" stroke-width="2.39749"/>
<path d="M37.8701 36.3223C37.5376 36.2778 37.2562 36.2356 37.0341 36.1982C36.9448 35.9917 36.8374 35.7286 36.7148 35.417L43.8369 27.5156L37.8701 36.3223Z" fill="white" stroke="white" stroke-width="2.39749"/>
<path d="M3.05859 21.8647C4.93058 21.8904 7.51423 21.9945 10.3623 22.3062C16.1281 22.9371 22.7107 24.3946 26.7822 27.5591V27.5601C30.7654 30.6561 32.153 35.2685 32.5088 39.2612C32.6856 41.2458 32.6026 43.034 32.4746 44.3267C32.414 44.939 32.3427 45.4368 32.2861 45.7876C31.9601 45.929 31.495 46.1215 30.916 46.3315C29.6949 46.7746 27.9824 47.2964 26.0156 47.6147C22.0586 48.2552 17.2458 48.0496 13.2627 44.9536C9.19122 41.7889 6.15441 35.7693 4.12012 30.3374C3.11526 27.6542 2.37647 25.1755 1.88965 23.3677C1.7345 22.7915 1.60615 22.284 1.50195 21.8608C1.93788 21.8574 2.46174 21.8566 3.05859 21.8647Z" fill="black" stroke="white" stroke-width="2.39749"/>
<path d="M32.3708 45.1943C32.3404 45.4222 32.3115 45.621 32.2848 45.7871C32.1303 45.854 31.9448 45.9318 31.7311 46.0176L26.1003 40.9805L32.3708 45.1943Z" fill="white" stroke="white" stroke-width="2.39749"/>
<path d="M61.2568 23.4756C60.7503 24.7998 60.1205 26.167 59.3379 27.4971C57.5639 30.5117 55.0274 33.3037 51.3925 35.0244C48.895 36.2067 45.8235 36.9093 42.0361 36.7891C43.9847 36.085 46.2944 35.1217 48.7099 33.8369C53.0043 31.5527 57.6928 28.2185 61.2568 23.4756Z" fill="black" stroke="white" stroke-width="2.39749"/>
<path d="M37.253 37.0508C35.5516 42.9123 35.2178 50.4257 35.3077 56.5381C35.3562 59.8362 35.5289 62.7667 35.6895 64.873C35.7533 65.7093 35.8167 66.4164 35.8682 66.9658L32.1993 67.0312C31.7369 56.0956 32.814 48.3638 34.0108 43.3564C34.6302 40.7648 35.282 38.9003 35.7715 37.6973C35.9203 37.3317 36.0557 37.0278 36.169 36.7822L37.253 37.0508Z" fill="black" stroke="white" stroke-width="2.39749"/>
</svg>
