<svg width="13" height="13" viewBox="0 0 13 13" fill="none" xmlns="http://www.w3.org/2000/svg">
<path d="M5.84985 3.02258C6.74951 2.92725 7.60565 3.43162 7.95835 4.26474M9.5852 9.58764L12.4856 12.4829M2.04541 9.67167C1.30504 8.91569 0.802887 7.959 0.601223 6.92026C0.397892 5.87861 0.502303 4.80029 0.901704 3.81701C1.29769 2.83924 1.97375 2.00027 2.84498 1.40546C4.61264 0.198181 6.93969 0.198181 8.70735 1.40546C9.57858 2.00027 10.2546 2.83924 10.6506 3.81701C11.05 4.80029 11.1544 5.87861 10.9511 6.92026C10.7494 7.959 10.2473 8.91569 9.50692 9.67167C8.52642 10.6778 7.18107 11.2453 5.77616 11.2453C4.37126 11.2453 3.02591 10.6778 2.04541 9.67167Z" stroke="white" stroke-linecap="round" stroke-linejoin="round"/>
</svg>
