<svg width="40" height="5" viewBox="0 0 40 5" fill="none" xmlns="http://www.w3.org/2000/svg">
<path d="M33.042 1.87455H22.1796V2.31682H33.042V1.87455Z" fill="white"/>
<path d="M33.7142 2.38763V1.80374C33.7142 1.65221 33.5914 1.52944 33.4399 1.52944C33.2884 1.52944 33.1656 1.65221 33.1656 1.80374V2.38763C33.1656 2.53916 33.2884 2.66193 33.4399 2.66193C33.5914 2.66193 33.7142 2.53892 33.7142 2.38763Z" fill="white"/>
<path d="M34.6055 2.46063V1.73077C34.6055 1.54153 34.452 1.38807 34.2628 1.38807C34.0735 1.38807 33.9201 1.54153 33.9201 1.73077V2.46063C33.9201 2.64986 34.0735 2.80333 34.2628 2.80333C34.452 2.80333 34.6055 2.64986 34.6055 2.46063Z" fill="white"/>
<path d="M35.6551 2.56088V1.63043C35.6551 1.38899 35.4593 1.19347 35.2181 1.19347C34.9767 1.19347 34.7811 1.38923 34.7811 1.63043V2.56088C34.7811 2.80231 34.9769 2.99783 35.2181 2.99783C35.4593 2.99783 35.6551 2.80231 35.6551 2.56088Z" fill="white"/>
<path d="M37.3958 0.0235237C37.239 0.113428 37.1955 0.378065 37.1493 0.535155C37.0886 0.741305 37.0357 0.953981 36.9559 1.15385C36.9622 1.13814 36.9086 1.28725 36.9559 1.15385C36.7735 1.66669 36.2848 2.00793 35.7398 1.98788C36.5623 2.20635 37.6464 1.84794 37.8289 0.925221C37.8707 0.713995 37.8601 0.48561 37.7752 0.285985C37.7199 0.155479 37.5664 -0.0741138 37.3958 0.0235237Z" fill="white"/>
<path d="M38.0008 1.11784C37.8976 1.43516 37.7125 1.69013 37.3962 1.81701C37.8602 1.81363 38.4868 1.75417 38.7476 1.30538C38.8614 1.10938 38.9318 0.690555 38.6418 0.598234C38.3457 0.50398 38.075 0.863837 38.0054 1.10648C37.9733 1.20823 37.989 1.15602 38.0008 1.11784Z" fill="white"/>
<path d="M36.7742 2.6992C37.0217 3.02522 37.0804 3.46773 37.2073 3.84765C37.252 3.98154 37.3375 4.24448 37.5299 4.18189C37.6976 4.12727 37.7849 3.91773 37.8226 3.76209C37.9151 3.37855 37.7897 2.94353 37.5181 2.65956C37.0697 2.18491 36.3599 2.04014 35.7396 2.20473C36.1485 2.18998 36.5279 2.37293 36.7742 2.6992Z" fill="white"/>
<path d="M37.917 2.86155C38.0373 3.1054 38.0699 3.36061 38.3162 3.52181C38.5579 3.67383 38.8201 3.58948 38.8462 3.28666C38.8677 3.0387 38.7288 2.79388 38.5303 2.6525C38.5229 2.64743 38.5156 2.64235 38.5115 2.63945C38.1746 2.42532 37.7886 2.37892 37.3966 2.37578C37.6323 2.47052 37.8043 2.63316 37.917 2.86155Z" fill="white"/>
<path d="M37.279 2.09569C38.4395 2.13968 40 3.15134 40 2.09569C40 1.04005 38.4591 2.04978 37.279 2.09569Z" fill="white"/>
<path d="M17.8202 1.87455H6.95779V2.31682H17.8202V1.87455Z" fill="white"/>
<path d="M6.83411 2.38762V1.80373C6.83411 1.6522 6.71134 1.52943 6.55981 1.52943C6.40827 1.52943 6.28551 1.6522 6.28551 1.80373V2.38762C6.28551 2.53915 6.40827 2.66192 6.55981 2.66192C6.71134 2.66192 6.83411 2.53891 6.83411 2.38762Z" fill="white"/>
<path d="M6.08017 2.46066V1.7308C6.08017 1.54156 5.9267 1.3881 5.73747 1.3881C5.54823 1.3881 5.39477 1.54156 5.39477 1.7308V2.46066C5.39477 2.64989 5.54823 2.80336 5.73747 2.80336C5.9267 2.80336 6.08017 2.64989 6.08017 2.46066Z" fill="white"/>
<path d="M5.21893 2.56088V1.63043C5.21893 1.38899 5.02318 1.19347 4.78199 1.19347C4.54055 1.19347 4.34503 1.38923 4.34503 1.63043V2.56088C4.34503 2.80231 4.54079 2.99783 4.78199 2.99783C5.02342 2.99783 5.21893 2.80231 5.21893 2.56088Z" fill="white"/>
<path d="M2.6044 4.16779C2.76101 4.07813 2.80475 3.81326 2.85091 3.65617C2.91157 3.45026 2.9645 3.23709 3.04425 3.03747C3.09162 2.90406 3.03797 3.05318 3.04425 3.03747C3.22672 2.52463 3.71539 2.18339 4.26037 2.20344C3.43795 1.98497 2.35403 2.34337 2.17132 3.2661C2.12951 3.47708 2.14038 3.70571 2.22497 3.90533C2.28007 4.03608 2.43378 4.26543 2.6044 4.16779Z" fill="white"/>
<path d="M1.99903 3.07353C2.10223 2.75621 2.28735 2.50124 2.60347 2.37436C2.13945 2.37775 1.51278 2.43744 1.25201 2.88623C1.13818 3.08223 1.06785 3.50106 1.35762 3.59338C1.65368 3.68763 1.92435 3.32778 1.99396 3.08513C2.02658 2.98339 2.01112 3.03535 1.99903 3.07353Z" fill="white"/>
<path d="M3.22561 1.49224C2.97814 1.16622 2.91941 0.72371 2.79253 0.343793C2.74782 0.209904 2.66226 -0.0530391 2.46989 0.00955521C2.30217 0.0641742 2.21492 0.273708 2.17722 0.429348C2.08466 0.812889 2.21009 1.24791 2.48173 1.53188C2.93004 2.00653 3.63984 2.1513 4.26023 1.98671C3.85131 2.00146 3.47212 1.81851 3.22561 1.49224Z" fill="white"/>
<path d="M1.68367 0.669774C1.44199 0.517759 1.17977 0.602106 1.15367 0.904928C1.13241 1.15289 1.27113 1.39771 1.46954 1.53909C1.47703 1.54416 1.48429 1.54924 1.48839 1.55214C1.82529 1.76626 2.21125 1.81267 2.60349 1.81581C2.36761 1.72107 2.19554 1.55818 2.08316 1.33004C1.96281 1.08619 1.93018 0.830731 1.68367 0.669774Z" fill="white"/>
<path d="M0 2.09569C0 3.15133 1.54093 2.14161 2.72104 2.09569C1.56051 2.0517 0 1.04004 0 2.09569Z" fill="white"/>
<path d="M20.6734 2.09567C20.6734 1.71092 20.3751 1.39916 20.0073 1.39916C19.6395 1.39916 19.3412 1.71092 19.3412 2.09567C19.3412 2.48042 19.6395 2.79218 20.0073 2.79218C20.3751 2.79218 20.6734 2.48042 20.6734 2.09567Z" fill="white"/>
<path d="M21.3896 2.62782C21.6707 2.62782 21.8986 2.38955 21.8986 2.09564C21.8986 1.80173 21.6707 1.56347 21.3896 1.56347C21.1085 1.56347 20.8806 1.80173 20.8806 2.09564C20.8806 2.38955 21.1085 2.62782 21.3896 2.62782Z" fill="white"/>
<path d="M18.6106 2.62782C18.8917 2.62782 19.1196 2.38955 19.1196 2.09564C19.1196 1.80173 18.8917 1.56347 18.6106 1.56347C18.3296 1.56347 18.1017 1.80173 18.1017 2.09564C18.1017 2.38955 18.3296 2.62782 18.6106 2.62782Z" fill="white"/>
</svg>
