<svg width="30" height="22" viewBox="0 0 30 22" fill="none" xmlns="http://www.w3.org/2000/svg">
<path d="M17.5587 20.1196C17.1588 20.5005 17.1433 21.1335 17.5242 21.5334C17.9051 21.9333 18.5381 21.9488 18.938 21.5679L18.2484 20.8438L17.5587 20.1196ZM29.0764 11.9123C29.4763 11.5314 29.4917 10.8984 29.1109 10.4985C28.73 10.0986 28.097 10.0831 27.6971 10.464L28.3867 11.1882L29.0764 11.9123ZM27.6971 11.9125C28.097 12.2934 28.73 12.278 29.1109 11.8781C29.4918 11.4781 29.4763 10.8451 29.0764 10.4643L28.3868 11.1884L27.6971 11.9125ZM18.938 0.808672C18.5381 0.427786 17.9051 0.443225 17.5243 0.843155C17.1434 1.24309 17.1588 1.87606 17.5587 2.25695L18.2484 1.53281L18.938 0.808672ZM28.3868 12.1875C28.939 12.1875 29.3868 11.7398 29.3868 11.1875C29.3868 10.6352 28.939 10.1875 28.3868 10.1875V11.1875V12.1875ZM1.35111 10.1875C0.798828 10.1875 0.351113 10.6352 0.351113 11.1875C0.351113 11.7398 0.798828 12.1875 1.35111 12.1875V11.1875V10.1875ZM25.1625 12.8779C24.7625 13.2588 24.7471 13.8918 25.128 14.2917C25.5089 14.6916 26.1419 14.7071 26.5418 14.3262L25.8521 13.6021L25.1625 12.8779ZM21.4726 19.154C21.8725 18.7731 21.888 18.1401 21.5071 17.7402C21.1262 17.3403 20.4932 17.3248 20.0933 17.7057L20.7829 18.4299L21.4726 19.154ZM26.5418 8.05036C26.1419 7.66948 25.5089 7.68491 25.128 8.08484C24.7471 8.48477 24.7626 9.11775 25.1625 9.49864L25.8522 8.7745L26.5418 8.05036ZM20.0933 4.67084C20.4933 5.05173 21.1262 5.03629 21.5071 4.63636C21.888 4.23643 21.8726 3.60345 21.4726 3.22257L20.783 3.94671L20.0933 4.67084ZM25.0073 10.1875C24.455 10.1875 24.0073 10.6352 24.0073 11.1875C24.0073 11.7398 24.455 12.1875 25.0073 12.1875V11.1875V10.1875ZM18.2484 12.1875C18.8007 12.1875 19.2484 11.7398 19.2484 11.1875C19.2484 10.6352 18.8007 10.1875 18.2484 10.1875V11.1875V12.1875ZM11.4895 10.1875C10.9372 10.1875 10.4895 10.6352 10.4895 11.1875C10.4895 11.7398 10.9372 12.1875 11.4895 12.1875V11.1875V10.1875ZM4.73057 12.1875C5.28285 12.1875 5.73057 11.7398 5.73057 11.1875C5.73057 10.6352 5.28285 10.1875 4.73057 10.1875V11.1875V12.1875ZM28.3867 11.1882L27.6971 10.464L25.1625 12.8779L25.8521 13.6021L26.5418 14.3262L29.0764 11.9123L28.3867 11.1882ZM20.7829 18.4299L20.0933 17.7057L17.5587 20.1196L18.2484 20.8438L18.938 21.5679L21.4726 19.154L20.7829 18.4299ZM28.3868 11.1884L29.0764 10.4643L26.5418 8.05036L25.8522 8.7745L25.1625 9.49864L27.6971 11.9125L28.3868 11.1884ZM20.783 3.94671L21.4726 3.22257L18.938 0.808672L18.2484 1.53281L17.5587 2.25695L20.0933 4.67084L20.783 3.94671ZM28.3868 11.1875V10.1875H25.0073V11.1875V12.1875H28.3868V11.1875ZM18.2484 11.1875V10.1875H11.4895V11.1875V12.1875H18.2484V11.1875ZM4.73057 11.1875V10.1875H1.35111V11.1875V12.1875H4.73057V11.1875Z" fill="black"/>
</svg>
