<svg width="30" height="22" viewBox="0 0 30 22" fill="none" xmlns="http://www.w3.org/2000/svg">
<path d="M17.6018 19.7886C17.2019 20.1694 17.1865 20.8024 17.5674 21.2024C17.9483 21.6023 18.5812 21.6177 18.9812 21.2368L18.2915 20.5127L17.6018 19.7886ZM29.1062 11.594C29.5061 11.2131 29.5215 10.5801 29.1406 10.1802C28.7598 9.78025 28.1268 9.76481 27.7268 10.1457L28.4165 10.8698L29.1062 11.594ZM27.7268 11.5938C28.1268 11.9747 28.7598 11.9592 29.1406 11.5593C29.5215 11.1594 29.5061 10.5264 29.1062 10.1455L28.4165 10.8696L27.7268 11.5938ZM18.9812 0.502644C18.5812 0.121758 17.9483 0.137196 17.5674 0.537127C17.1865 0.937057 17.2019 1.57003 17.6018 1.95092L18.2915 1.22678L18.9812 0.502644ZM28.4165 11.8686C28.9688 11.8686 29.4165 11.4209 29.4165 10.8686C29.4165 10.3163 28.9688 9.8686 28.4165 9.8686V10.8686V11.8686ZM1.4165 9.8686C0.864219 9.8686 0.416503 10.3163 0.416503 10.8686C0.416503 11.4209 0.864219 11.8686 1.4165 11.8686V10.8686V9.8686ZM25.1956 12.5564C24.7957 12.9373 24.7802 13.5703 25.1611 13.9702C25.542 14.3701 26.175 14.3856 26.5749 14.0047L25.8853 13.2806L25.1956 12.5564ZM21.5124 18.8261C21.9123 18.4452 21.9278 17.8123 21.5469 17.4123C21.166 17.0124 20.533 16.997 20.1331 17.3778L20.8228 18.102L21.5124 18.8261ZM26.5749 7.73479C26.175 7.3539 25.542 7.36934 25.1611 7.76927C24.7802 8.1692 24.7957 8.80218 25.1956 9.18306L25.8853 8.45892L26.5749 7.73479ZM20.1331 4.36163C20.533 4.74252 21.166 4.72708 21.5469 4.32715C21.9278 3.92722 21.9123 3.29424 21.5124 2.91336L20.8228 3.6375L20.1331 4.36163ZM25.0415 9.8686C24.4892 9.8686 24.0415 10.3163 24.0415 10.8686C24.0415 11.4209 24.4892 11.8686 25.0415 11.8686V10.8686V9.8686ZM18.2915 11.8686C18.8438 11.8686 19.2915 11.4209 19.2915 10.8686C19.2915 10.3163 18.8438 9.8686 18.2915 9.8686V10.8686V11.8686ZM11.5415 9.8686C10.9892 9.8686 10.5415 10.3163 10.5415 10.8686C10.5415 11.4209 10.9892 11.8686 11.5415 11.8686V10.8686V9.8686ZM4.7915 11.8686C5.34379 11.8686 5.7915 11.4209 5.7915 10.8686C5.7915 10.3163 5.34379 9.8686 4.7915 9.8686V10.8686V11.8686ZM28.4165 10.8698L27.7268 10.1457L25.1956 12.5564L25.8853 13.2806L26.5749 14.0047L29.1062 11.594L28.4165 10.8698ZM20.8228 18.102L20.1331 17.3778L17.6018 19.7886L18.2915 20.5127L18.9812 21.2368L21.5124 18.8261L20.8228 18.102ZM28.4165 10.8696L29.1062 10.1455L26.5749 7.73479L25.8853 8.45892L25.1956 9.18306L27.7268 11.5938L28.4165 10.8696ZM20.8228 3.6375L21.5124 2.91336L18.9812 0.502644L18.2915 1.22678L17.6018 1.95092L20.1331 4.36163L20.8228 3.6375ZM28.4165 10.8686V9.8686H25.0415V10.8686V11.8686H28.4165V10.8686ZM18.2915 10.8686V9.8686H11.5415V10.8686V11.8686H18.2915V10.8686ZM4.7915 10.8686V9.8686H1.4165V10.8686V11.8686H4.7915V10.8686Z" fill="white"/>
</svg>
